<svg width="17" height="23" viewBox="0 0 17 23" fill="none" xmlns="http://www.w3.org/2000/svg">
<path d="M0.00248206 10.3843C0.682521 10.3189 1.3494 10.398 2.02066 10.4497C4.1807 10.6155 6.30125 10.4071 8.34429 9.60999C9.2554 9.25554 10.0334 8.69725 10.4897 7.7632C10.8012 7.12428 10.7061 6.96607 10.0115 6.96455C7.5999 6.96455 5.1854 6.93412 2.77675 6.97672C2.02944 6.99041 1.89928 6.67247 1.89928 5.99247C1.89928 5.31247 2.04552 4.99757 2.78552 5.01127C5.12544 5.05538 7.46536 5.02952 9.80528 5.02496C10.5921 5.02496 10.6272 4.96715 10.38 4.21261C9.6488 1.96877 9.61516 1.94595 7.37761 1.94595C5.79378 1.94595 4.20849 1.91553 2.62612 1.95812C1.84809 1.97942 1.92414 1.48654 1.91829 0.967791C1.91244 0.449046 1.89635 -0.00428544 2.64952 0.000278304C6.96179 0.0286749 11.2741 0.0286749 15.5863 0.000278304C16.3497 0.000278304 16.3088 0.456652 16.3176 0.992131C16.3176 1.54434 16.3 1.98703 15.5586 1.95508C14.4164 1.9064 13.2684 1.95508 12.1247 1.93683C11.6143 1.9277 11.5222 2.08895 11.7533 2.55597C12.0532 3.16603 12.2825 3.811 12.4362 4.47731C12.5357 4.89413 12.7638 5.04169 13.1674 5.03104C13.9952 5.00822 14.8244 5.04778 15.6536 5.02039C16.3965 4.99453 16.3044 5.52849 16.3102 6.00312C16.3161 6.47775 16.3673 6.99649 15.6346 6.96455C14.8332 6.93108 14.0259 6.96455 13.223 6.95542C12.8428 6.95542 12.638 7.10754 12.5591 7.49698C12.1335 9.61152 10.6988 10.7433 8.90295 11.4963C7.60429 12.0409 6.23105 12.257 4.84758 12.4091C4.68232 12.4273 4.51852 12.4532 4.19386 12.4958C4.84026 13.2564 5.40331 13.9258 5.98097 14.586C8.1259 17.0423 10.2708 19.4981 12.4157 21.9534C12.5839 22.1466 12.9174 22.32 12.7828 22.6273C12.6702 22.8844 12.3441 22.7292 12.113 22.7794C10.8948 23.0183 10.1139 22.4265 9.33437 21.4864C6.38607 17.9647 3.36319 14.5221 0.376869 11.04C0.224774 10.8681 -0.01068 10.7357 0.00248206 10.3843Z" fill="#E0C861"/>
</svg>
