<svg width="23" height="28" viewBox="0 0 23 28" fill="none" xmlns="http://www.w3.org/2000/svg">
<g clip-path="url(#clip0_376_848)">
<path d="M0 14.6916C0.00949486 13.4993 0.133503 12.3706 0.516463 11.28C0.853099 10.3216 1.38366 9.47916 2.07448 8.7254C2.71006 8.03188 3.44778 7.47233 4.29398 7.05266C5.01962 6.69267 5.78812 6.47679 6.60727 6.43738C7.57661 6.39066 8.48812 6.62484 9.38581 6.94599C9.91666 7.13598 10.4403 7.34933 10.9942 7.47064C11.8758 7.66344 12.7349 7.58829 13.5756 7.26095C14.1542 7.03578 14.7303 6.80103 15.3339 6.64313C17.0847 6.18575 18.7207 6.43344 20.2505 7.38761C20.9785 7.84161 21.5962 8.4096 22.1437 9.05612C22.2467 9.17772 22.2421 9.20249 22.1066 9.2813C20.8746 9.99678 20.0192 11.0174 19.5421 12.3363C19.2573 13.1238 19.156 13.937 19.2254 14.7727C19.3287 16.019 19.7686 17.1378 20.5532 18.1195C21.1635 18.8829 21.9323 19.4562 22.8492 19.8331C23.0242 19.9049 23.0268 19.9077 22.9551 20.0783C22.4758 21.2176 21.8885 22.3015 21.2012 23.3339C20.7405 24.0261 20.2692 24.7114 19.7085 25.3304C19.2144 25.8758 18.6819 26.3828 18.0169 26.7332C17.0778 27.2283 16.1194 27.2286 15.146 26.8385C14.6848 26.6535 14.2521 26.4036 13.7762 26.2539C12.4155 25.8255 11.0765 25.888 9.76244 26.4391C9.33546 26.6181 8.92459 26.837 8.47805 26.9688C7.29953 27.3161 6.23697 27.0794 5.2685 26.3569C4.43698 25.7365 3.80283 24.9442 3.21415 24.1139C2.14958 22.6128 1.32036 20.9955 0.756424 19.2519C0.391016 18.1212 0.140409 16.9678 0.0523656 15.7828C0.0241687 15.404 0.00431585 15.0251 0 14.6916ZM16.4724 25.9462C16.6606 25.9518 16.8211 25.9333 16.9797 25.8891C17.3134 25.7965 17.6046 25.6248 17.8742 25.4193C18.4724 24.9628 18.965 24.4083 19.4098 23.8102C20.1674 22.7913 20.8412 21.7234 21.4031 20.5885C21.4512 20.4914 21.438 20.4425 21.345 20.3862C21.0349 20.1982 20.7512 19.9755 20.4752 19.7411C19.4708 18.8874 18.7915 17.8237 18.3792 16.5982C17.9456 15.3097 17.8805 13.9941 18.1907 12.6704C18.5193 11.2679 19.2317 10.0784 20.3273 9.11411C20.4214 9.03136 20.4358 8.97816 20.3322 8.89485C20.0687 8.6829 19.793 8.48926 19.5033 8.31306C18.3947 7.6398 17.2044 7.44108 15.9289 7.70904C15.2398 7.85371 14.6008 8.13827 13.9471 8.38117C12.7625 8.82138 11.5668 8.8712 10.35 8.52725C9.69022 8.34092 9.05608 8.08423 8.40554 7.87285C7.30183 7.51455 6.21309 7.50779 5.13614 7.96686C4.28736 8.32854 3.56719 8.85769 2.94859 9.5318C2.35674 10.1769 1.90818 10.8992 1.63081 11.7216C1.25476 12.8365 1.16787 13.9843 1.20757 15.1509C1.25246 16.4657 1.51975 17.7365 1.92774 18.9836C2.41313 20.4675 3.10741 21.8543 3.98698 23.1507C4.46201 23.8507 4.96754 24.5296 5.60283 25.1038C5.88911 25.3625 6.19439 25.598 6.54915 25.7607C7.19969 26.0591 7.84333 25.9921 8.48121 25.7118C8.87482 25.5389 9.2618 25.3515 9.66663 25.2037C10.5145 24.8944 11.3933 24.7874 12.2944 24.8175C12.8045 24.8344 13.3058 24.9006 13.7983 25.0326C14.3427 25.1784 14.8494 25.4128 15.3541 25.6529C15.7143 25.8246 16.0857 25.9592 16.4724 25.9462Z" fill="black"/>
<path d="M16.6215 0.793595C16.6183 2.15841 16.1505 3.30679 15.3892 4.35834C14.841 5.11548 14.1479 5.71049 13.3023 6.12706C12.6716 6.43779 12.0055 6.63623 11.29 6.64777C11.1432 6.65002 11.0891 6.6002 11.0719 6.4589C10.9622 5.56328 11.1334 4.71354 11.4945 3.89364C12.2786 2.11422 13.6292 0.939112 15.4939 0.316514C15.7805 0.220816 16.0785 0.169308 16.3786 0.133281C16.555 0.112171 16.5792 0.127652 16.5956 0.304411C16.6128 0.486237 16.6154 0.669188 16.6215 0.793595ZM12.3269 5.16332C12.3263 5.29364 12.4152 5.23256 12.4722 5.21174C13.0117 5.01499 13.4752 4.69638 13.8772 4.30289C14.5901 3.6043 15.0586 2.76356 15.312 1.80827C15.325 1.75986 15.3601 1.69907 15.3135 1.66332C15.266 1.62701 15.2154 1.67964 15.1705 1.70132C13.9626 2.28789 13.0848 3.17872 12.5729 4.40506C12.4711 4.64853 12.3853 4.89734 12.3269 5.16332Z" fill="black"/>
</g>
<defs>
<clipPath id="clip0_376_848">
<rect width="23" height="27" fill="white" transform="translate(0 0.125977)"/>
</clipPath>
</defs>
</svg>
