<svg width="566" height="566" viewBox="0 0 566 566" fill="none" xmlns="http://www.w3.org/2000/svg">
<path d="M283 531.723C430.544 531.723 550.152 462.68 550.152 377.511C550.152 292.342 430.544 223.298 283 223.298C135.456 223.298 15.8481 292.342 15.8481 377.511C15.8481 462.68 135.456 531.723 283 531.723Z" fill="#F5F5F5"/>
<path d="M46.548 346.958L337.97 515.207C339.725 516.095 341.664 516.557 343.63 516.557C345.596 516.557 347.535 516.095 349.29 515.207L507.929 423.617C511.053 421.806 511.053 418.885 507.929 417.074L216.507 248.825C214.752 247.938 212.813 247.475 210.846 247.475C208.88 247.475 206.941 247.938 205.186 248.825L46.548 340.415C43.4124 342.226 43.4124 345.147 46.548 346.958Z" fill="#E0E0E0"/>
<path d="M68.4408 328.767L80.1683 323.48C80.1683 323.48 85.2849 300.014 85.3415 281.449C85.4095 255.413 71.8707 222.585 51.2231 227.872C30.5754 233.158 56.951 262.398 61.196 284.97C65.441 307.542 68.4408 328.767 68.4408 328.767Z" fill="#3A4E5F"/>
<path opacity="0.15" d="M68.4408 328.767L80.1683 323.48C80.1683 323.48 85.2849 300.014 85.3415 281.449C85.4095 255.413 71.8707 222.585 51.2231 227.872C30.5754 233.158 56.951 262.398 61.196 284.97C65.441 307.542 68.4408 328.767 68.4408 328.767Z" fill="black"/>
<path d="M74.5425 326.661C74.4544 326.65 74.3695 326.622 74.2926 326.577C74.2157 326.533 74.1484 326.474 74.0947 326.403C74.0409 326.333 74.0018 326.252 73.9796 326.166C73.9573 326.08 73.9524 325.991 73.9651 325.903C81.7193 268.692 56.0569 236.928 55.8531 236.611C55.7957 236.543 55.7524 236.464 55.7258 236.379C55.6992 236.294 55.6899 236.205 55.6983 236.116C55.7068 236.028 55.7328 235.942 55.7749 235.863C55.8171 235.785 55.8745 235.716 55.9437 235.66C56.0822 235.547 56.2597 235.493 56.4378 235.51C56.6158 235.527 56.7799 235.613 56.8946 235.75C57.1549 236.067 83.1909 268.295 75.3575 326.084C75.3455 326.177 75.3143 326.267 75.2659 326.347C75.2176 326.427 75.1531 326.497 75.0765 326.551C74.9999 326.605 74.9129 326.643 74.821 326.662C74.7291 326.681 74.6342 326.681 74.5425 326.661Z" fill="white"/>
<path d="M61.128 332.05L69.4143 328.28C69.4143 328.28 72.4028 312.126 66.4145 291.524C61.2073 273.593 45.3932 257.564 36.4165 259.681C27.4397 261.798 27.0209 267.99 30.6093 274.872C34.1978 281.755 58.366 299.742 61.128 332.05Z" fill="#3A4E5F"/>
<path opacity="0.2" d="M61.128 332.05L69.4143 328.28C69.4143 328.28 72.4028 312.126 66.4145 291.524C61.2073 273.593 45.3932 257.564 36.4165 259.681C27.4397 261.798 27.0209 267.99 30.6093 274.872C34.1978 281.755 58.366 299.742 61.128 332.05Z" fill="white"/>
<path d="M65.407 330.737C65.2307 330.717 65.0692 330.628 64.9571 330.491C64.8449 330.353 64.7911 330.177 64.807 330.001C68.6332 293.709 37.0277 265.737 36.7108 265.477C36.5772 265.36 36.4955 265.194 36.4839 265.017C36.4722 264.84 36.5314 264.665 36.6485 264.532C36.7656 264.398 36.931 264.316 37.1082 264.305C37.2855 264.293 37.4601 264.352 37.5937 264.469C37.922 264.752 70.0482 293.188 66.1541 330.125C66.1456 330.215 66.1195 330.301 66.0772 330.381C66.035 330.46 65.9775 330.53 65.908 330.587C65.8385 330.644 65.7585 330.686 65.6725 330.712C65.5865 330.738 65.4962 330.746 65.407 330.737Z" fill="white"/>
<path d="M451.838 129.897C451.847 129.28 451.763 128.666 451.589 128.074L458.211 120.49L449.721 115.724C448.917 115.17 447.774 115.102 446.223 116.007L431.507 124.554L429.526 125.686C429.873 123.979 430.108 122.251 430.228 120.513C430.284 119.788 430.296 119.098 430.296 118.407L430.567 118.543L435.537 112.736L427.047 107.959C424.194 106.216 419.372 109.657 419.372 111.049C419.372 112.725 420.096 121.498 419.372 124.011C418.647 126.524 411.063 143.855 411.063 143.855V144.987V179.965L438.74 163.959C442.374 161.853 444.898 157.371 444.898 154.337C444.939 152.979 444.688 151.628 444.163 150.375C446.517 149.016 448.86 144.104 448.86 142.021C448.86 138.874 447.785 138.059 447.785 138.059C450.161 135.98 451.617 133.046 451.838 129.897Z" fill="#3A4E5F"/>
<path opacity="0.1" d="M451.838 129.897C451.847 129.28 451.763 128.666 451.589 128.074L458.211 120.49L449.721 115.724C448.917 115.17 447.774 115.102 446.223 116.007L431.507 124.554L429.526 125.686C429.873 123.979 430.108 122.251 430.228 120.513C430.284 119.788 430.296 119.098 430.296 118.407L430.567 118.543L435.537 112.736L427.047 107.959C424.194 106.216 419.372 109.657 419.372 111.049C419.372 112.725 420.096 121.498 419.372 124.011C418.647 126.524 411.063 143.855 411.063 143.855V144.987V179.965L438.74 163.959C442.374 161.853 444.898 157.371 444.898 154.337C444.939 152.979 444.688 151.628 444.163 150.375C446.517 149.016 448.86 144.104 448.86 142.021C448.86 138.874 447.785 138.059 447.785 138.059C450.161 135.98 451.617 133.046 451.838 129.897Z" fill="black"/>
<path d="M419.813 184.935L411.052 179.875L411.029 143.741L419.779 148.801L419.813 184.935Z" fill="#E0E0E0"/>
<path d="M419.813 184.935L411.052 179.875L411.029 143.741L419.779 148.801L419.813 184.935Z" fill="#3A4E5F"/>
<path opacity="0.3" d="M419.813 184.935L411.052 179.875L411.029 143.741L419.779 148.801L419.813 184.935Z" fill="black"/>
<path d="M457.928 147.669C457.928 152.333 455.267 153.974 452.913 155.333C453.425 156.597 453.668 157.954 453.626 159.318C453.626 162.329 451.113 166.834 447.491 168.917L419.813 184.923V150.329V148.801C419.813 148.801 427.42 131.47 428.133 128.946C428.847 126.422 428.133 117.626 428.133 116.007C428.133 114.388 435.005 109.736 437.189 114.536C439.374 119.335 439.555 124.226 438.321 130.61L455.052 120.931C458.584 118.894 460.033 121.814 460.033 124.101C460.033 127.35 458.516 130.553 456.501 131.776C456.501 131.776 460.35 131.968 460.35 136.451C460.317 137.868 459.966 139.26 459.323 140.524C458.681 141.787 457.763 142.891 456.637 143.753C456.637 143.753 457.928 144.545 457.928 147.669Z" fill="#3A4E5F"/>
<path d="M403.739 199.085L415.829 192.112L415.795 150.058L403.739 157.031V199.085Z" fill="#37474F"/>
<path d="M403.739 199.085L394.977 194.036V151.982L403.739 157.031V199.085Z" fill="#263238"/>
<path d="M407.044 145.009L415.795 150.058L403.739 157.031L394.977 151.982L407.044 145.009Z" fill="#455A64"/>
<path d="M428.088 128.946C427.375 131.47 419.768 148.801 419.768 148.801L411.029 143.877C411.029 143.877 418.613 126.535 419.338 124.033C420.062 121.531 419.338 112.713 419.338 111.072L428.1 116.007C428.088 117.728 428.824 126.444 428.088 128.946Z" fill="#3A4E5F"/>
<path opacity="0.2" d="M428.088 128.946C427.375 131.47 419.768 148.801 419.768 148.801L411.029 143.877C411.029 143.877 418.613 126.535 419.338 124.033C420.062 121.531 419.338 112.713 419.338 111.072L428.1 116.007C428.088 117.728 428.824 126.444 428.088 128.946Z" fill="black"/>
<path d="M530.806 165.668L522.474 160.472C519.395 158.502 514.709 158.706 509.388 161.604C502.03 165.532 495.533 175.448 492.725 183.859L486.76 180.146C483.737 177.962 479.492 177.497 474.704 180.056C474.115 180.373 473.572 180.724 472.938 181.086L472.021 181.708C471.761 181.89 471.489 182.059 471.229 182.252C470.968 182.444 470.414 182.874 470.018 183.191L469.565 183.542C469.101 183.927 468.636 184.335 468.184 184.754L467.98 184.946C467.471 185.41 466.984 185.897 466.497 186.395C465.004 187.936 463.641 189.598 462.422 191.364C459.026 196.232 456.875 201.666 456.762 206.488C456.468 215.465 461.822 221.374 468.512 225.256L475.089 229.343C478.99 231.842 483.239 233.749 487.699 235.003L498.646 238.297L510.158 223.004C521.173 208.401 534.394 188.161 534.836 174.622C534.983 170.309 533.444 167.241 530.806 165.668Z" fill="#3A4E5F"/>
<path d="M474.953 229.32L468.467 225.268C461.788 221.385 456.422 215.476 456.717 206.499C456.875 201.688 459.06 196.232 462.433 191.376L470.98 196.685C467.584 201.541 465.422 206.997 465.263 211.808C465.003 219.868 469.259 225.449 474.953 229.32Z" fill="#3A4E5F"/>
<g opacity="0.3">
<path d="M474.953 229.32L468.467 225.268C461.788 221.385 456.422 215.476 456.717 206.499C456.875 201.688 459.06 196.232 462.433 191.376L470.98 196.685C467.584 201.541 465.422 206.997 465.263 211.808C465.003 219.868 469.259 225.449 474.953 229.32Z" fill="black"/>
</g>
<path d="M530.772 165.612C527.682 163.823 523.097 164.106 517.935 166.868C509.06 171.6 501.408 185.048 500.027 194.036C499.189 186.214 492.171 180.599 483.296 185.354C478.37 188.122 474.154 191.998 470.98 196.674L462.433 191.365L462.864 190.753C462.988 190.583 463.101 190.425 463.237 190.255L464.188 189.01C465.109 187.874 466.091 186.789 467.131 185.761C467.38 185.489 467.652 185.24 467.912 184.991L468.478 184.471C470.387 182.744 472.492 181.247 474.75 180.011C476.786 178.858 479.089 178.261 481.428 178.279C483.363 178.331 485.237 178.966 486.805 180.101L492.726 183.746C495.522 175.347 502.031 165.442 509.4 161.514C514.72 158.661 519.396 158.457 522.475 160.382L530.772 165.612Z" fill="#3A4E5F"/>
<path opacity="0.1" d="M530.772 165.612C527.682 163.823 523.097 164.106 517.935 166.868C509.06 171.6 501.408 185.048 500.027 194.036C499.189 186.214 492.171 180.599 483.296 185.354C478.37 188.122 474.154 191.998 470.98 196.674L462.433 191.365L462.864 190.753C462.988 190.583 463.101 190.425 463.237 190.255L464.188 189.01C465.109 187.874 466.091 186.789 467.131 185.761C467.38 185.489 467.652 185.24 467.912 184.991L468.478 184.471C470.387 182.744 472.492 181.247 474.75 180.011C476.786 178.858 479.089 178.261 481.428 178.279C483.363 178.331 485.237 178.966 486.805 180.101L492.726 183.746C495.522 175.347 502.031 165.442 509.4 161.514C514.72 158.661 519.396 158.457 522.475 160.382L530.772 165.612Z" fill="black"/>
<path d="M395.577 78.4589L387.2 73.2517L383.986 79.7268L388.514 84.6736C388.514 84.6736 388.785 85.6471 390.993 83.9378C392.766 82.3317 394.309 80.4879 395.577 78.4589Z" fill="#3A4E5F"/>
<path opacity="0.3" d="M395.577 78.4589L387.2 73.2517L383.986 79.7268L388.514 84.6736C388.514 84.6736 388.785 85.6471 390.993 83.9378C392.766 82.3317 394.309 80.4879 395.577 78.4589Z" fill="black"/>
<path d="M389.249 89.9033C389.249 100.091 386.318 112.543 380.884 123.999C374.681 137.108 365.24 149.073 353.263 155.48C346.403 159.148 340.121 159.918 334.913 158.287L326.537 153.08C331.97 151.009 337.483 146.526 342.237 140.357L337.098 137.153C335.327 135.935 334.107 134.068 333.702 131.957C334.945 131.586 336.122 131.02 337.189 130.282L333.793 128.154C331.223 126.557 329.774 122.935 330.012 118.203C331.873 118.496 333.779 118.165 335.434 117.264C334.907 117.076 334.408 116.817 333.951 116.494C329.989 113.675 329.321 106.012 332.378 98.0877L340.732 103.284C345.35 104.529 350.92 104.076 356.806 101.314C355.369 92.3371 361.425 79.7153 369.258 75.5269C372.745 73.6704 375.835 73.9081 377.941 75.8212C380.852 73.4985 383.478 70.8386 385.763 67.8972L394.14 73.1044C393.066 77.322 391.14 81.2747 388.48 84.7187C391.055 82.9258 393.414 80.8403 395.509 78.5041C393.817 82.5075 391.72 86.3272 389.249 89.9033Z" fill="#FFC0B3"/>
<path d="M389.249 89.9034C389.249 100.091 386.317 112.543 380.884 123.999C374.681 137.108 365.24 149.073 353.263 155.48C346.403 159.148 340.121 159.918 334.913 158.287C341.309 155.842 347.807 150.08 353.025 142.134C347.728 144.828 343.403 142.655 342.068 137.164C344.106 136.516 345.977 135.426 347.546 133.972C341.773 135.546 337.97 130.825 338.343 123.411C340.209 123.703 342.118 123.373 343.777 122.471C343.353 122.319 342.947 122.121 342.566 121.882C338.366 119.233 337.585 111.389 340.72 103.295C341.615 107.517 349.448 110.777 356.218 110.676C362.761 110.574 365.013 106.77 365.138 106.532C363.7 97.5557 369.768 84.9339 377.59 80.7455C381.065 78.889 384.155 79.1267 386.272 81.0285C389.187 78.7093 391.813 76.049 394.094 73.1045C393.021 77.322 391.095 81.2748 388.434 84.7188C391.01 82.9259 393.369 80.8404 395.464 78.5041C393.786 82.5057 391.704 86.3253 389.249 89.9034Z" fill="#FF8267"/>
<path opacity="0.1" d="M394.151 73.0592C391.869 75.9991 389.247 78.6589 386.34 80.9832C385.798 80.4868 385.163 80.1021 384.472 79.8512L377.952 75.8439C380.864 73.5212 383.489 70.8613 385.774 67.9199L394.151 73.0592Z" fill="black"/>
<path opacity="0.3" d="M347.592 133.972C346.022 135.426 344.152 136.516 342.113 137.164L333.747 131.957C334.99 131.586 336.167 131.02 337.234 130.282L341.977 133.225L342.124 133.327L342.339 133.463C343.134 133.899 344.01 134.17 344.913 134.257C345.816 134.345 346.727 134.248 347.592 133.972Z" fill="black"/>
<path opacity="0.1" d="M365.194 106.521C364.945 106.963 362.636 110.528 356.297 110.63C349.505 110.732 341.694 107.472 340.8 103.25C342.235 103.633 343.708 103.853 345.192 103.906C349.239 103.966 353.242 103.066 356.874 101.28L365.194 106.521Z" fill="#FFC0B3"/>
<path opacity="0.2" d="M340.732 103.295L332.366 98.0991C329.31 106.023 329.978 113.687 333.94 116.505L334.506 116.856L335.276 117.343L342.588 121.871C338.468 119.245 337.63 111.4 340.732 103.295Z" fill="#FFC0B3"/>
<path opacity="0.3" d="M343.822 122.471C342.164 123.373 340.254 123.703 338.389 123.411L330.023 118.203C331.83 118.488 333.679 118.182 335.298 117.332L342.611 121.86C342.994 122.102 343.4 122.307 343.822 122.471Z" fill="black"/>
<path opacity="0.2" d="M341.977 133.225L337.234 130.282L333.838 128.154C331.268 126.558 329.819 122.935 330.057 118.204L338.423 123.411C338.162 128.007 339.532 131.561 341.977 133.225Z" fill="black"/>
<path opacity="0.2" d="M345.26 142.224L342.237 140.368L337.098 137.176C335.323 135.957 334.102 134.085 333.702 131.969L342.068 137.176C342.467 139.197 343.605 140.997 345.26 142.224Z" fill="black"/>
<path d="M500.831 289.226L502.076 287.211L495.748 283.056C490.326 279.208 482.47 279.377 473.742 284.449C457.464 293.912 444.31 316.858 444.367 335.683C444.367 344.603 447.378 350.999 452.234 354.259L458.483 358.38L459.524 356.67C463.792 356.965 468.705 355.697 473.935 352.652C490.224 343.188 503.367 320.254 503.367 301.417C503.448 297.215 502.582 293.047 500.831 289.226Z" fill="#3A4E5F"/>
<path opacity="0.2" d="M500.831 289.226L502.076 287.211L495.748 283.056C490.326 279.208 482.47 279.377 473.742 284.449C457.464 293.912 444.31 316.858 444.367 335.683C444.367 344.603 447.378 350.999 452.234 354.259L458.483 358.38L459.524 356.67C463.792 356.965 468.705 355.697 473.935 352.652C490.224 343.188 503.367 320.254 503.367 301.417C503.448 297.215 502.582 293.047 500.831 289.226Z" fill="black"/>
<path d="M509.762 305.64C509.819 324.465 496.665 347.411 480.33 356.874C463.996 366.338 450.808 358.742 450.763 339.894C450.717 321.047 463.86 298.124 480.138 288.66C496.416 279.197 509.706 286.826 509.762 305.64Z" fill="#3A4E5F"/>
<path d="M504.872 308.515C504.872 324.205 493.96 343.324 480.398 351.214C466.837 359.104 455.789 352.765 455.743 337.075C455.698 321.386 466.656 302.266 480.228 294.376C493.801 286.486 504.804 292.814 504.872 308.515Z" fill="white"/>
<path d="M499.914 311.356C499.914 323.91 491.175 339.204 480.33 345.52C469.486 351.837 460.667 346.777 460.633 334.2C460.599 321.624 469.361 306.353 480.217 300.036C491.073 293.72 499.891 298.848 499.914 311.356Z" fill="#3A4E5F"/>
<path d="M495.024 314.22C495.024 323.639 488.469 335.106 480.308 339.849C472.146 344.592 465.592 340.777 465.524 331.37C465.456 321.963 472.067 310.474 480.24 305.742C488.413 301.01 494.99 304.814 495.024 314.22Z" fill="white"/>
<path d="M480.251 311.424C474.818 314.583 470.437 322.235 470.459 328.506C470.482 334.778 474.885 337.325 480.319 334.166C485.753 331.008 490.133 323.356 490.111 317.084C490.088 310.813 485.685 308.266 480.251 311.424Z" fill="#3A4E5F"/>
<path d="M480.262 317.107C478.834 318.049 477.648 319.313 476.798 320.797C475.949 322.282 475.46 323.945 475.372 325.654C475.372 328.789 477.579 330.057 480.296 328.484C481.727 327.544 482.916 326.28 483.768 324.796C484.619 323.311 485.109 321.646 485.198 319.937C485.187 316.801 482.979 315.533 480.262 317.107Z" fill="white"/>
<path d="M529.47 348.147L522.905 345.419L518.83 345.226V345.962L525.056 349.562L529.47 348.882V348.147Z" fill="#3A4E5F"/>
<path d="M518.83 345.226L522.905 345.419L529.47 348.147L525.056 348.826L518.83 345.226Z" fill="#3A4E5F"/>
<path opacity="0.2" d="M525.056 349.561V348.826L529.47 348.146V348.882L525.056 349.561Z" fill="black"/>
<path opacity="0.1" d="M525.056 348.826L518.83 345.226V345.962L525.056 349.562V348.826Z" fill="black"/>
<path d="M490.858 325.552L480.772 322.79V324.193L485.209 330.216L487.643 327.884L490.858 326.956V325.552Z" fill="#37474F"/>
<path d="M480.772 322.79L485.209 328.812L487.643 326.491L490.858 325.552L480.772 322.79Z" fill="#455A64"/>
<path d="M485.209 328.812V330.215L487.643 327.884V326.491L485.209 328.812Z" fill="#263238"/>
<path d="M487.643 326.491L490.858 325.552V326.955L487.643 327.884V326.491Z" fill="#263238"/>
<path d="M488.073 326.48C488.002 326.436 487.919 326.413 487.835 326.413C487.752 326.413 487.669 326.436 487.598 326.48C487.406 326.605 487.245 326.771 487.127 326.968C487.01 327.164 486.938 327.384 486.919 327.612C486.908 327.697 486.922 327.784 486.958 327.862C486.994 327.94 487.051 328.006 487.122 328.053L528.191 351.825L529.12 350.15L488.073 326.48Z" fill="#455A64"/>
<path d="M487.066 327.148C486.976 327.328 486.926 327.525 486.919 327.725C486.908 327.811 486.922 327.897 486.958 327.975C486.994 328.053 487.051 328.119 487.122 328.167L528.191 351.939L528.61 351.18L487.066 327.148Z" fill="#37474F"/>
<path d="M528.644 350.252C528.454 350.377 528.295 350.545 528.179 350.741C528.063 350.937 527.994 351.157 527.976 351.384C527.976 351.814 528.27 351.995 528.644 351.78C528.835 351.656 528.995 351.489 529.111 351.293C529.227 351.097 529.296 350.876 529.312 350.648C529.323 350.218 529.029 350.037 528.644 350.252Z" fill="#263238"/>
<path d="M524.614 349.811V349.075L518.399 345.475V346.222L518.728 348.565L523.437 352.369L524.614 349.822V349.811Z" fill="#3A4E5F"/>
<path opacity="0.2" d="M518.399 345.475L518.739 347.83L518.728 348.565L518.399 346.222V345.475Z" fill="black"/>
<path opacity="0.2" d="M524.614 349.075L523.437 351.622V352.358L524.614 349.811V349.075Z" fill="black"/>
<path opacity="0.1" d="M518.739 347.829L523.437 351.622V352.357L518.728 348.565L518.739 347.829Z" fill="black"/>
<path d="M529.199 295.961L522.633 298.689L518.569 298.882V298.146L524.784 294.546L529.199 295.225V295.961Z" fill="#3A4E5F"/>
<path d="M518.569 298.882L522.633 298.69L529.199 295.961L524.784 295.282L518.569 298.882Z" fill="#3A4E5F"/>
<path opacity="0.2" d="M524.784 294.546V295.282L529.199 295.961V295.225L524.784 294.546Z" fill="black"/>
<path opacity="0.1" d="M524.784 295.282L518.569 298.882V298.146L524.784 294.546V295.282Z" fill="black"/>
<path d="M490.586 318.556L480.511 321.318V319.914L484.938 313.903L487.371 316.224L490.586 317.152V318.556Z" fill="#37474F"/>
<path d="M480.511 321.318L484.938 315.296L487.371 317.628L490.586 318.556L480.511 321.318Z" fill="#455A64"/>
<path d="M484.938 315.296V313.903L487.371 316.224V317.628L484.938 315.296Z" fill="#263238"/>
<path d="M487.371 317.628L490.586 318.556V317.152L487.371 316.224V317.628Z" fill="#263238"/>
<path d="M487.802 317.628C487.731 317.674 487.648 317.699 487.564 317.699C487.479 317.699 487.397 317.674 487.326 317.628C487.134 317.503 486.973 317.336 486.856 317.14C486.738 316.944 486.667 316.724 486.647 316.496C486.638 316.411 486.652 316.325 486.688 316.247C486.724 316.169 486.78 316.103 486.851 316.054L527.92 292.282L528.848 293.946L487.802 317.628Z" fill="#455A64"/>
<path d="M486.76 316.96C486.661 316.783 486.606 316.585 486.601 316.382C486.593 316.297 486.607 316.211 486.643 316.134C486.679 316.056 486.735 315.989 486.805 315.941L527.874 292.169L528.293 292.916L486.76 316.96Z" fill="#37474F"/>
<path d="M528.384 293.856C528.193 293.731 528.033 293.564 527.917 293.368C527.802 293.171 527.733 292.951 527.716 292.724C527.716 292.294 528.01 292.112 528.384 292.328C528.575 292.452 528.734 292.619 528.85 292.816C528.966 293.012 529.035 293.232 529.052 293.46C529.052 293.89 528.757 294.071 528.384 293.856Z" fill="#263238"/>
<path d="M524.342 294.297V295.033L518.128 298.633V297.886L518.456 295.542L523.165 291.739L524.342 294.297Z" fill="#3A4E5F"/>
<path opacity="0.2" d="M518.128 298.633L518.467 296.278L518.456 295.542L518.128 297.886V298.633Z" fill="black"/>
<path opacity="0.2" d="M524.343 295.033L523.165 292.486V291.75L524.343 294.297V295.033Z" fill="black"/>
<path opacity="0.1" d="M518.467 296.278L523.165 292.486V291.75L518.456 295.542L518.467 296.278Z" fill="black"/>
<path d="M411.743 316.089L406.864 303.58L410.792 292.26V285.264L398.77 292.203V299.142L403.943 311.425C404.025 311.561 404.148 311.668 404.294 311.73L411.743 316.089Z" fill="#3A4E5F"/>
<path opacity="0.2" d="M411.743 316.089L406.864 303.58L410.792 292.26V285.264L398.77 292.203V299.142L403.943 311.425C404.025 311.561 404.148 311.668 404.294 311.73L411.743 316.089Z" fill="black"/>
<path d="M440.755 262.964C440.691 261.714 440.331 260.497 439.705 259.412C439.079 258.328 438.206 257.408 437.156 256.726L435.82 255.832C434.704 255.268 433.471 254.974 432.22 254.974C430.97 254.974 429.737 255.268 428.62 255.832L379.639 284.132C378.589 284.814 377.715 285.734 377.089 286.818C376.464 287.902 376.104 289.119 376.039 290.369V306.919C376.104 308.169 376.464 309.386 377.089 310.47C377.715 311.555 378.589 312.475 379.639 313.157L381.02 314.006C382.135 314.574 383.368 314.87 384.62 314.87C385.871 314.87 387.105 314.574 388.219 314.006L406.331 303.535L411.471 315.828C411.544 315.956 411.652 316.059 411.783 316.127C411.913 316.195 412.06 316.224 412.207 316.211C412.353 316.198 412.493 316.143 412.609 316.053C412.725 315.963 412.814 315.842 412.863 315.704L418.319 296.584L437.156 285.706C438.206 285.024 439.079 284.104 439.705 283.019C440.331 281.935 440.691 280.718 440.755 279.468V262.964Z" fill="#3A4E5F"/>
<path opacity="0.2" d="M375.994 306.942C376.059 308.192 376.419 309.409 377.044 310.493C377.67 311.577 378.544 312.498 379.594 313.179L380.975 314.028C381.99 314.541 383.102 314.832 384.237 314.882C385.373 314.933 386.506 314.742 387.563 314.323C385.865 314.957 384.574 314.006 384.574 311.945V295.452C384.614 294.197 384.977 292.972 385.627 291.898L377.047 286.894C376.398 287.966 376.036 289.186 375.994 290.437V306.942Z" fill="black"/>
<path opacity="0.5" d="M440.643 261.945C440.224 260.417 438.82 259.93 437.156 260.881L388.174 289.181C387.104 289.832 386.228 290.758 385.639 291.864L377.058 286.872C377.658 285.771 378.531 284.843 379.594 284.177L428.564 255.877C429.682 255.313 430.917 255.019 432.17 255.019C433.422 255.019 434.657 255.313 435.775 255.877L437.156 256.726C438.057 257.318 438.831 258.085 439.43 258.981C440.029 259.878 440.441 260.886 440.643 261.945Z" fill="white"/>
<path d="M391.265 306.421C390.835 306.59 390.358 306.59 389.929 306.421C389.848 306.362 389.782 306.283 389.739 306.192C389.696 306.101 389.675 306.001 389.68 305.9C389.696 305.468 389.792 305.042 389.963 304.644C390.071 304.279 390.293 303.957 390.597 303.727C390.749 303.658 390.916 303.627 391.084 303.636H391.57C392.032 303.614 392.482 303.482 392.883 303.252C393.279 303.024 393.628 302.725 393.914 302.369C394.204 302.028 394.361 301.594 394.355 301.146C394.371 300.878 394.29 300.613 394.129 300.399C393.975 300.25 393.775 300.158 393.563 300.139C393.242 300.113 392.921 300.113 392.6 300.139C391.859 300.215 391.115 300.031 390.495 299.618C390.245 299.334 390.059 299.001 389.948 298.64C389.836 298.279 389.803 297.898 389.85 297.524C389.875 296.324 390.27 295.162 390.982 294.196C391.738 293.103 392.733 292.198 393.891 291.547C394.324 291.289 394.788 291.088 395.272 290.947C395.633 290.811 396.02 290.757 396.404 290.788C396.642 290.788 396.755 290.969 396.755 291.252C396.735 291.639 396.659 292.02 396.528 292.384C396.454 292.729 396.262 293.037 395.985 293.256C395.809 293.337 395.622 293.394 395.43 293.426C394.994 293.498 394.573 293.643 394.185 293.856C393.764 294.071 393.405 294.39 393.144 294.784C392.968 295.055 392.867 295.367 392.849 295.69C392.849 296.165 392.974 296.448 393.223 296.561C393.589 296.675 393.973 296.721 394.355 296.697H394.796C395.476 296.636 396.154 296.83 396.698 297.241C396.921 297.516 397.087 297.833 397.186 298.173C397.285 298.513 397.315 298.87 397.276 299.222C397.269 299.998 397.116 300.766 396.823 301.486C396.489 302.313 396.019 303.079 395.43 303.75C394.766 304.503 393.982 305.141 393.11 305.64C392.531 305.978 391.911 306.241 391.265 306.421Z" fill="white"/>
<path d="M398.611 301.723V289.498C398.611 289.09 398.985 288.671 399.743 288.253L400.547 287.788C401.272 287.37 401.679 287.358 401.679 287.788V292.509L404.951 290.619V285.898C404.951 285.491 405.324 285.083 406.083 284.653L406.864 284.2C407.599 283.77 407.996 283.77 407.996 284.2V296.437C407.996 296.844 407.622 297.252 406.864 297.682L406.083 298.135C405.347 298.565 404.951 298.565 404.951 298.135V293.154L401.679 295.045V299.98C401.679 300.388 401.317 300.807 400.547 301.225L399.743 301.689C398.985 302.12 398.611 302.131 398.611 301.723Z" fill="white"/>
<path d="M409.026 295.905C409.031 295.779 409.05 295.653 409.082 295.531L412.025 281.676C412.116 281.268 412.501 280.872 413.157 280.476L414.403 279.751C415.104 279.355 415.535 279.298 415.535 279.604L418.478 290.052C418.478 290.222 418.478 290.324 418.478 290.381C418.478 290.664 418.195 290.958 417.652 291.275L416.644 291.864C416.033 292.215 415.693 292.271 415.625 292.045L415.127 289.996L412.229 291.671L411.709 294.297C411.709 294.603 411.358 294.909 410.814 295.226L409.818 295.792C409.331 296.154 409.026 296.188 409.026 295.905ZM414.935 287.856L414.074 284.302C413.984 283.894 413.905 283.453 413.837 282.977L413.746 283.034C413.678 283.577 413.61 284.109 413.52 284.619L412.671 289.147L414.935 287.856Z" fill="white"/>
<path d="M419.666 289.566V277.532C419.659 277.293 419.722 277.057 419.847 276.853C420 276.636 420.202 276.457 420.436 276.333L423.617 274.487C424.435 273.895 425.443 273.625 426.447 273.729C427.16 273.887 427.522 274.657 427.522 275.993C427.473 277.594 426.822 279.118 425.7 280.261V280.34C425.844 280.339 425.986 280.368 426.119 280.424C426.251 280.481 426.371 280.564 426.47 280.668C426.704 280.907 426.878 281.198 426.979 281.517L428.111 284.528L428.168 284.732C428.168 285.072 427.771 285.468 426.979 285.921L426.311 286.317C425.643 286.702 425.258 286.747 425.179 286.464L424.172 283.419C424.136 283.332 424.083 283.254 424.014 283.189C423.946 283.125 423.864 283.076 423.775 283.045C423.522 283.049 423.277 283.132 423.074 283.283L422.621 283.543V287.856C422.621 288.264 422.236 288.694 421.489 289.135L420.832 289.509C420.051 289.962 419.666 289.973 419.666 289.566ZM423.674 280.147C423.992 279.945 424.244 279.654 424.398 279.31C424.604 278.875 424.704 278.398 424.692 277.917C424.692 277.385 424.591 277.057 424.398 276.921C424.276 276.855 424.136 276.826 423.997 276.838C423.859 276.85 423.726 276.903 423.617 276.989L422.61 277.578V280.736L423.674 280.147Z" fill="white"/>
<path d="M429.696 284.132C429.583 284.132 429.526 283.906 429.526 283.645V271.85C429.519 271.608 429.578 271.37 429.696 271.159C429.831 270.956 430.014 270.789 430.228 270.673L435.888 267.424C436.081 267.31 436.216 267.299 436.307 267.424C436.422 267.622 436.469 267.852 436.443 268.08V268.669C436.453 268.943 436.406 269.217 436.307 269.473C436.222 269.672 436.075 269.839 435.888 269.948L432.492 271.884V274.657L435.469 272.937C435.662 272.823 435.809 272.823 435.888 272.937C436.002 273.131 436.05 273.358 436.024 273.582V274.17C436.035 274.445 435.989 274.719 435.888 274.974C435.807 275.176 435.659 275.344 435.469 275.45L432.492 277.17V280.261L435.888 278.314C436.081 278.2 436.216 278.2 436.296 278.314C436.398 278.516 436.442 278.744 436.42 278.97V279.559C436.427 279.832 436.385 280.104 436.296 280.362C436.215 280.558 436.072 280.721 435.888 280.827L430.228 284.087C430.148 284.132 430.059 284.159 429.967 284.167C429.875 284.175 429.783 284.163 429.696 284.132Z" fill="white"/>
<path d="M361.108 282.434L356.229 269.926L360.157 258.606V251.667L348.147 258.606V265.534L353.309 277.816C353.39 277.955 353.513 278.066 353.66 278.133L361.108 282.434Z" fill="#3A4E5F"/>
<path opacity="0.2" d="M361.108 282.434L356.229 269.926L360.157 258.606V251.667L348.147 258.606V265.534L353.309 277.816C353.39 277.955 353.513 278.066 353.66 278.133L361.108 282.434Z" fill="black"/>
<path d="M393.846 227.102C393.781 225.852 393.421 224.635 392.795 223.551C392.169 222.467 391.296 221.546 390.246 220.865L388.865 220.016C387.749 219.452 386.516 219.158 385.265 219.158C384.014 219.158 382.781 219.452 381.665 220.016L325.144 252.651C324.094 253.333 323.221 254.253 322.595 255.337C321.969 256.422 321.609 257.638 321.545 258.889V275.427C321.614 276.678 321.976 277.895 322.601 278.98C323.226 280.065 324.097 280.989 325.144 281.676L326.526 282.513C327.64 283.082 328.874 283.378 330.125 283.378C331.377 283.378 332.61 283.082 333.725 282.513L355.629 269.892L360.791 282.162C360.865 282.29 360.974 282.393 361.106 282.46C361.237 282.527 361.384 282.555 361.531 282.541C361.677 282.527 361.817 282.471 361.933 282.379C362.048 282.288 362.135 282.166 362.184 282.027L367.628 262.964L390.268 249.889C391.318 249.208 392.192 248.287 392.818 247.203C393.444 246.119 393.803 244.902 393.868 243.652L393.846 227.102Z" fill="#FF8267"/>
<path opacity="0.2" d="M321.545 275.427C321.614 276.678 321.976 277.894 322.601 278.98C323.226 280.065 324.097 280.988 325.144 281.676L326.526 282.513C327.54 283.026 328.652 283.317 329.788 283.367C330.924 283.418 332.057 283.227 333.114 282.808C331.416 283.453 330.125 282.491 330.125 280.442V263.892C330.171 262.637 330.533 261.414 331.178 260.337L322.62 255.334C321.975 256.411 321.613 257.634 321.567 258.888L321.545 275.427Z" fill="black"/>
<path opacity="0.5" d="M393.732 226.083C393.314 224.555 391.91 224.068 390.246 225.019L333.725 257.655C332.657 258.314 331.782 259.243 331.189 260.349L322.62 255.345C323.224 254.244 324.101 253.316 325.167 252.651L381.665 220.016C382.783 219.451 384.018 219.157 385.271 219.157C386.523 219.157 387.758 219.451 388.876 220.016L390.257 220.865C391.158 221.455 391.931 222.222 392.528 223.119C393.125 224.016 393.535 225.024 393.732 226.083Z" fill="white"/>
<path d="M335.989 273.865V263.032C335.981 262.813 336.036 262.597 336.148 262.409C336.269 262.227 336.432 262.075 336.623 261.968L341.355 259.239C341.525 259.138 341.649 259.138 341.728 259.239C341.832 259.417 341.875 259.624 341.853 259.828V260.36C341.859 260.607 341.817 260.854 341.728 261.085C341.652 261.261 341.521 261.408 341.355 261.503L338.672 263.054V265.567L341.196 264.107C341.366 264.005 341.491 264.005 341.581 264.107C341.679 264.283 341.719 264.485 341.694 264.684V265.216C341.706 265.463 341.667 265.71 341.581 265.941C341.501 266.121 341.366 266.271 341.196 266.371L338.672 267.831V272.359C338.672 272.722 338.332 273.095 337.676 273.491L336.985 273.888C336.317 274.216 335.989 274.227 335.989 273.865Z" fill="white"/>
<path d="M342.996 264.345C342.996 260.247 344.49 257.326 347.524 255.583C348.984 254.745 350.105 254.598 350.864 255.153C351.622 255.708 351.996 257.043 351.996 259.149C352.056 260.988 351.668 262.814 350.864 264.469C350.095 265.895 348.937 267.073 347.524 267.865C344.434 269.631 342.996 268.454 342.996 264.345ZM348.509 264.718C348.794 264.254 348.986 263.739 349.075 263.201C349.216 262.383 349.28 261.553 349.267 260.722C349.29 259.963 349.226 259.203 349.075 258.458C348.95 257.972 348.758 257.677 348.509 257.598C348.336 257.563 348.158 257.565 347.987 257.604C347.815 257.643 347.653 257.718 347.513 257.824C347.111 258.053 346.766 258.371 346.505 258.753C346.21 259.217 346.013 259.737 345.928 260.281C345.777 261.095 345.709 261.921 345.724 262.749C345.698 263.509 345.766 264.269 345.928 265.013C346.052 265.511 346.245 265.794 346.505 265.873C346.681 265.903 346.86 265.897 347.033 265.857C347.206 265.816 347.369 265.741 347.513 265.635C347.892 265.406 348.214 265.092 348.452 264.718H348.509Z" fill="white"/>
<path d="M353.716 263.971C353.614 263.971 353.558 263.779 353.558 263.541V252.708C353.558 252.346 353.897 251.961 354.565 251.576L355.244 251.168C355.912 250.783 356.24 250.783 356.24 251.168V260.439L358.81 258.956C358.991 258.855 359.127 258.843 359.206 258.956C359.304 259.136 359.343 259.342 359.32 259.545V260.077C359.33 260.324 359.292 260.57 359.206 260.802C359.125 260.985 358.986 261.136 358.81 261.232L354.203 263.892C353.976 263.994 353.818 264.028 353.716 263.971Z" fill="white"/>
<path d="M360.735 259.93C360.633 259.873 360.576 259.738 360.576 259.489V248.655C360.576 248.293 360.916 247.92 361.572 247.523L362.263 247.127C362.931 246.742 363.259 246.731 363.259 247.127V256.398L365.829 254.927C366.01 254.813 366.134 254.802 366.225 254.927C366.323 255.102 366.362 255.304 366.338 255.504V256.036C366.349 256.283 366.311 256.529 366.225 256.76C366.137 256.942 366 257.095 365.829 257.202L361.221 259.851C360.995 259.941 360.837 259.975 360.735 259.93Z" fill="white"/>
<path d="M366.927 250.5C366.927 246.395 368.436 243.474 371.455 241.739C372.926 240.89 374.035 240.743 374.794 241.309C375.552 241.875 375.926 243.199 375.926 245.305C375.993 247.144 375.604 248.972 374.794 250.625C374.029 252.053 372.87 253.232 371.455 254.021C368.443 255.779 366.934 254.606 366.927 250.5ZM372.451 250.863C372.737 250.399 372.93 249.884 373.017 249.346C373.153 248.531 373.214 247.704 373.198 246.878C373.225 246.119 373.164 245.359 373.017 244.614C372.892 244.116 372.7 243.833 372.451 243.742C372.275 243.713 372.096 243.719 371.923 243.76C371.75 243.8 371.587 243.875 371.443 243.98C371.045 244.205 370.705 244.519 370.447 244.897C370.154 245.368 369.954 245.89 369.858 246.437C369.708 247.246 369.64 248.069 369.655 248.893C369.628 249.653 369.697 250.414 369.858 251.157C369.994 251.655 370.187 251.949 370.447 252.029C370.621 252.058 370.798 252.053 370.969 252.012C371.141 251.971 371.302 251.896 371.443 251.791C371.839 251.562 372.176 251.244 372.428 250.863H372.451Z" fill="white"/>
<path d="M378.88 249.561C378.856 249.57 378.83 249.572 378.804 249.569C378.778 249.566 378.753 249.557 378.731 249.543C378.709 249.529 378.691 249.51 378.677 249.487C378.664 249.465 378.656 249.44 378.654 249.414L376.39 239.678C376.384 239.629 376.384 239.58 376.39 239.531C376.395 239.494 376.395 239.456 376.39 239.418C376.39 239.124 376.73 238.773 377.409 238.388L377.907 238.094C378.586 237.697 378.96 237.663 379.039 237.992L379.843 243.878L380.001 245.01L380.16 246.267L380.465 244.003C380.505 243.824 380.531 243.642 380.544 243.459L381.597 236.328C381.62 236.174 381.696 236.034 381.812 235.931C381.992 235.762 382.194 235.617 382.412 235.501L383.273 235.003C383.454 234.886 383.653 234.798 383.861 234.743C383.986 234.743 384.054 234.743 384.076 234.901L385.106 240.822L385.491 243.244L385.729 241.263L385.831 240.414L386.657 233.622C386.657 233.237 387.065 232.852 387.789 232.49L388.185 232.252C388.865 231.868 389.204 231.822 389.204 232.117C389.211 232.207 389.211 232.298 389.204 232.388L386.94 244.75C386.94 245.01 386.623 245.293 386.137 245.576L385.005 246.233C384.552 246.493 384.291 246.527 384.235 246.312L383.103 240.924L382.91 239.192L382.616 241.116L381.427 247.908C381.427 248.168 381.122 248.44 380.658 248.712L379.526 249.368C379.325 249.473 379.106 249.538 378.88 249.561Z" fill="white"/>
<path d="M259.602 196.074L307.146 168.623C307.316 168.492 307.525 168.42 307.74 168.42C307.955 168.42 308.164 168.492 308.334 168.623C308.617 168.849 311.3 170.264 311.595 170.479C311.772 170.638 311.91 170.837 311.997 171.059C312.083 171.282 312.116 171.521 312.093 171.758V214.548C312.083 215.163 311.93 215.767 311.645 216.311C311.36 216.856 310.951 217.326 310.451 217.684L302.108 222.506L258.47 197.319C258.729 196.81 259.12 196.38 259.602 196.074Z" fill="#3A4E5F"/>
<path opacity="0.5" d="M259.602 196.074L307.146 168.623C307.316 168.492 307.525 168.42 307.74 168.42C307.955 168.42 308.164 168.492 308.334 168.623C308.617 168.849 311.3 170.264 311.595 170.479C311.772 170.638 311.91 170.837 311.997 171.059C312.083 171.282 312.116 171.521 312.093 171.758V214.548C312.083 215.163 311.93 215.767 311.645 216.311C311.36 216.856 310.951 217.326 310.451 217.684L302.108 222.506L258.47 197.319C258.729 196.81 259.12 196.38 259.602 196.074Z" fill="white"/>
<path d="M261.809 245.203C261.481 244.988 258.775 243.493 258.481 243.29C258.297 243.132 258.153 242.933 258.062 242.708C257.972 242.484 257.937 242.24 257.96 241.999V199.232C257.976 198.569 258.155 197.92 258.481 197.342L302.12 222.529L262.918 245.169C262.756 245.281 262.566 245.344 262.369 245.35C262.172 245.356 261.977 245.305 261.809 245.203Z" fill="#3A4E5F"/>
<path opacity="0.2" d="M261.809 245.203C261.481 244.988 258.775 243.493 258.481 243.29C258.297 243.132 258.153 242.933 258.062 242.708C257.972 242.484 257.937 242.24 257.96 241.999V199.232C257.976 198.569 258.155 197.92 258.481 197.342L302.12 222.529L262.918 245.169C262.756 245.281 262.566 245.344 262.369 245.35C262.172 245.356 261.977 245.305 261.809 245.203Z" fill="black"/>
<path d="M262.918 245.135L310.462 217.684C310.962 217.326 311.371 216.856 311.656 216.311C311.941 215.767 312.094 215.163 312.104 214.548V171.759C312.104 170.559 311.368 170.004 310.462 170.525L262.918 197.976C262.418 198.334 262.009 198.804 261.724 199.348C261.439 199.893 261.286 200.497 261.277 201.111V243.901C261.277 245.101 262.013 245.644 262.918 245.135Z" fill="#3A4E5F"/>
<path opacity="0.2" d="M261.277 243.901V243.052L280.94 210.473L261.492 199.719L261.639 199.368L285.853 209.42C286.362 209.624 286.985 209.25 287.539 208.447L311.685 170.502C311.74 170.554 311.789 170.61 311.832 170.672L292.452 203.794L312.104 213.676V214.514C312.093 215.188 311.926 215.851 311.617 216.45L291.456 205.503L288.592 210.382C287.46 212.318 285.921 213.212 284.789 212.578L281.936 210.994L261.809 245.169C261.628 245.014 261.485 244.818 261.392 244.598C261.3 244.378 261.261 244.139 261.277 243.901Z" fill="black"/>
<path d="M271.408 203.013L318.952 175.562C319.126 175.433 319.336 175.364 319.552 175.364C319.768 175.364 319.979 175.433 320.152 175.562C320.424 175.8 323.118 177.215 323.412 177.419C323.59 177.58 323.728 177.781 323.814 178.005C323.901 178.229 323.934 178.47 323.91 178.709V221.499C323.899 222.113 323.744 222.716 323.459 223.26C323.174 223.804 322.767 224.275 322.269 224.634L313.915 229.445L270.288 204.258C270.546 203.753 270.933 203.323 271.408 203.013Z" fill="#3A4E5F"/>
<path opacity="0.5" d="M271.408 203.013L318.952 175.562C319.126 175.433 319.336 175.364 319.552 175.364C319.768 175.364 319.979 175.433 320.152 175.562C320.424 175.8 323.118 177.215 323.412 177.419C323.59 177.58 323.728 177.781 323.814 178.005C323.901 178.229 323.934 178.47 323.91 178.709V221.499C323.899 222.113 323.744 222.716 323.459 223.26C323.174 223.804 322.767 224.275 322.269 224.634L313.915 229.445L270.288 204.258C270.546 203.753 270.933 203.323 271.408 203.013Z" fill="white"/>
<path d="M273.604 252.142C273.287 251.938 270.582 250.433 270.288 250.24C270.102 250.081 269.958 249.88 269.868 249.653C269.777 249.426 269.742 249.181 269.767 248.938V206.149C269.786 205.486 269.965 204.838 270.288 204.258L313.915 229.445L274.725 252.085C274.563 252.201 274.372 252.267 274.173 252.277C273.974 252.287 273.777 252.24 273.604 252.142Z" fill="#3A4E5F"/>
<path opacity="0.2" d="M273.604 252.142C273.287 251.938 270.582 250.433 270.288 250.24C270.102 250.081 269.958 249.88 269.868 249.653C269.777 249.426 269.742 249.181 269.767 248.938V206.149C269.786 205.486 269.965 204.838 270.288 204.258L313.915 229.445L274.725 252.085C274.563 252.201 274.372 252.267 274.173 252.277C273.974 252.287 273.777 252.24 273.604 252.142Z" fill="black"/>
<path d="M274.725 252.085L322.269 224.634C322.767 224.275 323.174 223.804 323.459 223.26C323.744 222.716 323.899 222.113 323.91 221.499V178.709C323.91 177.498 323.174 176.943 322.269 177.464L274.725 204.915C274.227 205.274 273.819 205.745 273.535 206.289C273.25 206.833 273.095 207.436 273.083 208.05V250.84C273.083 252.051 273.819 252.606 274.725 252.085Z" fill="#3A4E5F"/>
<path opacity="0.2" d="M273.084 250.84V250.002L292.735 217.423L273.333 206.669C273.375 206.55 273.424 206.432 273.48 206.318L297.648 216.393C298.169 216.608 298.78 216.223 299.335 215.42L323.48 177.486C323.538 177.531 323.588 177.584 323.628 177.645L304.259 210.778L323.911 220.649V221.498C323.901 222.171 323.731 222.831 323.412 223.423L303.252 212.476L300.399 217.344C299.267 219.28 297.727 220.174 296.595 219.608L293.731 218.023L273.604 252.142C273.422 251.98 273.28 251.779 273.19 251.553C273.099 251.327 273.063 251.082 273.084 250.84Z" fill="black"/>
<path d="M283.204 209.963L330.748 182.512C330.921 182.382 331.131 182.312 331.348 182.312C331.564 182.312 331.775 182.382 331.948 182.512C332.219 182.739 334.902 184.154 335.197 184.369C335.376 184.526 335.516 184.725 335.603 184.947C335.689 185.17 335.721 185.411 335.695 185.648V228.438C335.688 229.053 335.536 229.658 335.251 230.203C334.965 230.748 334.555 231.217 334.053 231.573L325.71 236.396L282.072 211.209C282.331 210.7 282.722 210.27 283.204 209.963Z" fill="#3A4E5F"/>
<path opacity="0.5" d="M283.204 209.963L330.748 182.512C330.921 182.382 331.131 182.312 331.348 182.312C331.564 182.312 331.775 182.382 331.948 182.512C332.219 182.739 334.902 184.154 335.197 184.369C335.376 184.526 335.516 184.725 335.603 184.947C335.689 185.17 335.721 185.411 335.695 185.648V228.438C335.688 229.053 335.536 229.658 335.251 230.203C334.965 230.748 334.555 231.217 334.053 231.573L325.71 236.396L282.072 211.209C282.331 210.7 282.722 210.27 283.204 209.963Z" fill="white"/>
<path d="M285.411 259.092C285.083 258.877 282.378 257.383 282.083 257.179C281.899 257.022 281.755 256.822 281.665 256.598C281.574 256.373 281.539 256.13 281.562 255.889V213.099C281.579 212.436 281.758 211.787 282.083 211.208L325.722 236.395L286.521 259.035C286.361 259.151 286.171 259.218 285.974 259.228C285.777 259.238 285.582 259.191 285.411 259.092Z" fill="#3A4E5F"/>
<path opacity="0.2" d="M285.411 259.092C285.083 258.877 282.378 257.383 282.083 257.179C281.899 257.022 281.755 256.822 281.665 256.598C281.574 256.373 281.539 256.13 281.562 255.889V213.099C281.579 212.436 281.758 211.787 282.083 211.208L325.722 236.395L286.521 259.035C286.361 259.151 286.171 259.218 285.974 259.228C285.777 259.238 285.582 259.191 285.411 259.092Z" fill="black"/>
<path d="M286.521 259.024L334.065 231.573C334.566 231.217 334.977 230.748 335.262 230.203C335.547 229.658 335.699 229.053 335.706 228.438V185.648C335.706 184.448 334.981 183.893 334.065 184.414L286.521 211.865C286.021 212.223 285.612 212.693 285.327 213.238C285.042 213.782 284.888 214.386 284.879 215.001V257.79C284.879 258.99 285.615 259.545 286.521 259.024Z" fill="#3A4E5F"/>
<path opacity="0.2" d="M284.879 257.79V256.964L304.508 224.362L285.094 213.608L285.241 213.257L309.421 223.343C309.93 223.547 310.553 223.174 311.108 222.37L335.253 184.425C335.305 184.475 335.354 184.528 335.4 184.584L316.055 217.717L335.706 227.6V228.437C335.694 229.111 335.527 229.774 335.219 230.373L315.058 219.427L312.206 224.306C311.074 226.241 309.523 227.136 308.391 226.502L305.538 224.917L285.411 259.092C285.225 258.933 285.079 258.732 284.987 258.506C284.894 258.279 284.857 258.034 284.879 257.79Z" fill="black"/>
<path d="M490.507 422.054L355.029 500.264C352.887 501.501 350.467 502.175 347.995 502.223C345.522 502.27 343.078 501.69 340.89 500.536L68.1348 342.996C63.8332 340.516 60.3467 334.97 60.3467 330.544C60.3467 326.117 63.8332 320.638 68.1235 318.148L203.115 240.323C205.526 239.106 208.19 238.472 210.891 238.472C213.593 238.472 216.256 239.106 218.668 240.323L490.507 397.332C494.808 399.811 498.295 405.357 498.295 409.727C498.295 414.096 494.808 419.575 490.507 422.054Z" fill="#3A4E5F"/>
<path opacity="0.5" d="M203.115 240.323L68.1235 318.25C63.8332 320.741 60.3467 326.288 60.3467 330.646C60.3467 335.004 63.8332 340.562 68.1348 343.098L340.947 500.593C343.051 501.67 345.376 502.243 347.739 502.268V314.798L218.691 240.323C216.276 239.103 213.608 238.467 210.903 238.467C208.197 238.467 205.529 239.103 203.115 240.323Z" fill="black"/>
<path opacity="0.4" d="M355.029 500.265L490.507 422.055C494.808 419.576 498.295 414.029 498.295 409.671C498.295 405.313 494.808 399.754 490.507 397.275L347.66 314.798V502.212C350.247 502.238 352.792 501.565 355.029 500.265Z" fill="black"/>
<path d="M351.803 486.33C349.677 487.407 347.326 487.968 344.943 487.968C342.559 487.968 340.209 487.407 338.083 486.33L68.101 330.453C62.2938 327.057 62.2938 321.624 68.101 318.273L203.103 240.324C205.515 239.107 208.179 238.473 210.88 238.473C213.582 238.473 216.245 239.107 218.657 240.324L490.495 397.332C494.774 399.8 494.774 403.841 490.495 406.309L351.803 486.33Z" fill="#3A4E5F"/>
<path opacity="0.3" d="M351.803 486.33C349.677 487.407 347.326 487.968 344.943 487.968C342.559 487.968 340.209 487.407 338.083 486.33L68.101 330.453C62.2938 327.057 62.2938 321.624 68.101 318.273L203.103 240.324C205.515 239.107 208.179 238.473 210.88 238.473C213.582 238.473 216.245 239.107 218.657 240.324L490.495 397.332C494.774 399.8 494.774 403.841 490.495 406.309L351.803 486.33Z" fill="black"/>
<path d="M338.694 470.64C336.403 471.801 333.871 472.406 331.302 472.406C328.734 472.406 326.201 471.801 323.91 470.64L91.5898 336.51C87.5033 334.155 87.5033 330.329 91.5898 327.974L218.589 254.7C220.882 253.545 223.413 252.943 225.981 252.943C228.548 252.943 231.08 253.545 233.373 254.7L465.693 388.785C469.757 391.129 469.757 394.977 465.693 397.321L338.694 470.64Z" fill="#37474F"/>
<path d="M225.528 252.923C223.104 252.939 220.722 253.549 218.589 254.7L91.5898 327.974C87.5033 330.329 87.5033 334.155 91.5898 336.509L116.765 351.044L225.528 281.585V252.923Z" fill="#263238"/>
<path d="M233.463 260.202C231.171 259.046 228.639 258.444 226.071 258.444C223.504 258.444 220.972 259.046 218.679 260.202L91.6917 333.521C90.9579 333.922 90.2992 334.447 89.7446 335.072C90.2863 335.639 90.9079 336.123 91.5898 336.51L323.91 470.641C326.201 471.801 328.734 472.406 331.302 472.406C333.871 472.406 336.403 471.801 338.694 470.641L465.693 397.332C466.411 396.931 467.057 396.415 467.606 395.804C467.08 395.224 466.465 394.731 465.784 394.344L233.463 260.202Z" fill="#455A64"/>
<path d="M138.013 293.674L160.517 280.736C161.865 279.966 161.932 278.743 160.665 278.019C159.928 277.662 159.118 277.484 158.299 277.5C157.481 277.516 156.678 277.725 155.956 278.109L133.451 291.105C132.104 291.875 132.036 293.097 133.304 293.822C134.045 294.17 134.858 294.338 135.676 294.313C136.495 294.287 137.295 294.068 138.013 293.674Z" fill="#37474F"/>
<path d="M176.66 271.397C176.935 271.304 177.175 271.126 177.345 270.89C177.514 270.653 177.605 270.369 177.605 270.078C177.605 269.787 177.514 269.504 177.345 269.267C177.175 269.03 176.935 268.853 176.66 268.76C175.957 268.408 175.182 268.225 174.396 268.225C173.61 268.225 172.835 268.408 172.132 268.76C171.856 268.853 171.617 269.03 171.447 269.267C171.277 269.504 171.186 269.787 171.186 270.078C171.186 270.369 171.277 270.653 171.447 270.89C171.617 271.126 171.856 271.304 172.132 271.397C172.835 271.749 173.61 271.932 174.396 271.932C175.182 271.932 175.957 271.749 176.66 271.397Z" fill="#37474F"/>
<path d="M185.784 266.122C186.059 266.028 186.299 265.851 186.469 265.614C186.638 265.378 186.729 265.094 186.729 264.803C186.729 264.512 186.638 264.228 186.469 263.992C186.299 263.755 186.059 263.578 185.784 263.484C185.081 263.133 184.306 262.949 183.52 262.949C182.734 262.949 181.959 263.133 181.256 263.484C180.98 263.578 180.741 263.755 180.571 263.992C180.401 264.228 180.31 264.512 180.31 264.803C180.31 265.094 180.401 265.378 180.571 265.614C180.741 265.851 180.98 266.028 181.256 266.122C181.959 266.473 182.734 266.657 183.52 266.657C184.306 266.657 185.081 266.473 185.784 266.122Z" fill="#37474F"/>
<path d="M112.792 308.266C113.068 308.173 113.307 307.995 113.477 307.759C113.647 307.522 113.738 307.238 113.738 306.947C113.738 306.656 113.647 306.372 113.477 306.136C113.307 305.899 113.068 305.722 112.792 305.628C112.089 305.277 111.314 305.094 110.528 305.094C109.742 305.094 108.967 305.277 108.264 305.628C107.988 305.722 107.749 305.899 107.579 306.136C107.41 306.372 107.318 306.656 107.318 306.947C107.318 307.238 107.41 307.522 107.579 307.759C107.749 307.995 107.988 308.173 108.264 308.266C108.967 308.618 109.742 308.801 110.528 308.801C111.314 308.801 112.089 308.618 112.792 308.266Z" fill="#37474F"/>
<path d="M121.916 302.991C122.192 302.898 122.431 302.72 122.601 302.484C122.771 302.247 122.862 301.963 122.862 301.672C122.862 301.381 122.771 301.098 122.601 300.861C122.431 300.624 122.192 300.447 121.916 300.354C121.213 300.002 120.438 299.819 119.652 299.819C118.866 299.819 118.091 300.002 117.388 300.354C117.112 300.447 116.873 300.624 116.703 300.861C116.534 301.098 116.442 301.381 116.442 301.672C116.442 301.963 116.534 302.247 116.703 302.484C116.873 302.72 117.112 302.898 117.388 302.991C118.091 303.343 118.866 303.526 119.652 303.526C120.438 303.526 121.213 303.343 121.916 302.991Z" fill="#37474F"/>
<path d="M153.691 383.521C154.385 383.954 154.968 384.545 155.391 385.245C155.814 385.945 156.065 386.735 156.125 387.551C156.151 387.827 156.103 388.105 155.986 388.356C155.868 388.606 155.686 388.821 155.457 388.978L153.748 389.963C153.464 390.086 153.153 390.133 152.845 390.1C152.537 390.066 152.244 389.952 151.993 389.77L120.365 371.5C119.671 371.067 119.089 370.476 118.666 369.776C118.243 369.076 117.991 368.286 117.931 367.47C117.906 367.205 117.949 366.938 118.056 366.694C118.163 366.45 118.331 366.238 118.543 366.077C118.848 365.885 120.003 365.228 120.297 365.059C120.583 364.935 120.896 364.888 121.206 364.922C121.515 364.955 121.811 365.069 122.063 365.251L153.691 383.521Z" fill="#3A4E5F"/>
<path opacity="0.4" d="M153.691 383.521C154.385 383.954 154.968 384.545 155.391 385.245C155.814 385.945 156.065 386.735 156.125 387.551C156.151 387.827 156.103 388.105 155.986 388.356C155.868 388.606 155.686 388.821 155.457 388.978L153.748 389.963C153.464 390.086 153.153 390.133 152.845 390.1C152.537 390.066 152.244 389.952 151.993 389.77L120.365 371.5C119.671 371.067 119.089 370.476 118.666 369.776C118.243 369.076 117.991 368.286 117.931 367.47C117.906 367.205 117.949 366.938 118.056 366.694C118.163 366.45 118.331 366.238 118.543 366.077C118.848 365.885 120.003 365.228 120.297 365.059C120.583 364.935 120.896 364.888 121.206 364.922C121.515 364.955 121.811 365.069 122.063 365.251L153.691 383.521Z" fill="black"/>
<path d="M151.994 384.495L120.365 366.236C119.018 365.455 117.932 366.01 117.932 367.47C117.991 368.286 118.243 369.076 118.666 369.776C119.089 370.477 119.671 371.067 120.365 371.5L151.994 389.77C153.341 390.54 154.427 389.985 154.427 388.536C154.368 387.719 154.117 386.927 153.694 386.224C153.271 385.522 152.689 384.93 151.994 384.495Z" fill="#3A4E5F"/>
<path opacity="0.3" d="M151.994 384.495L120.365 366.236C119.018 365.455 117.932 366.01 117.932 367.47C117.991 368.286 118.243 369.076 118.666 369.776C119.089 370.477 119.671 371.067 120.365 371.5L151.994 389.77C153.341 390.54 154.427 389.985 154.427 388.536C154.368 387.719 154.117 386.927 153.694 386.224C153.271 385.522 152.689 384.93 151.994 384.495Z" fill="black"/>
<path d="M111.354 359.07C112.046 359.508 112.626 360.101 113.046 360.803C113.467 361.505 113.717 362.295 113.777 363.112C113.807 363.386 113.761 363.664 113.643 363.914C113.525 364.163 113.34 364.376 113.109 364.527C112.815 364.685 111.717 365.353 111.411 365.523C111.125 365.641 110.814 365.685 110.507 365.649C110.2 365.614 109.907 365.5 109.656 365.319L94.7479 356.704C94.0536 356.272 93.4713 355.681 93.0484 354.981C92.6255 354.281 92.3739 353.49 92.3141 352.675C92.289 352.41 92.3319 352.143 92.4389 351.899C92.5459 351.655 92.7133 351.443 92.9254 351.282L94.68 350.263C94.9644 350.139 95.2766 350.093 95.5848 350.128C95.893 350.164 96.1863 350.281 96.4346 350.467L111.354 359.07Z" fill="#3A4E5F"/>
<path opacity="0.4" d="M111.354 359.07C112.046 359.508 112.626 360.101 113.046 360.803C113.467 361.505 113.717 362.295 113.777 363.112C113.807 363.386 113.761 363.664 113.643 363.914C113.525 364.163 113.34 364.376 113.109 364.527C112.815 364.685 111.717 365.353 111.411 365.523C111.125 365.641 110.814 365.685 110.507 365.649C110.2 365.614 109.907 365.5 109.656 365.319L94.7479 356.704C94.0536 356.272 93.4713 355.681 93.0484 354.981C92.6255 354.281 92.3739 353.49 92.3141 352.675C92.289 352.41 92.3319 352.143 92.4389 351.899C92.5459 351.655 92.7133 351.443 92.9254 351.282L94.68 350.263C94.9644 350.139 95.2766 350.093 95.5848 350.128C95.893 350.164 96.1863 350.281 96.4346 350.467L111.354 359.07Z" fill="black"/>
<path d="M109.657 360.055L94.7482 351.441C93.4012 350.671 92.3145 351.214 92.3145 352.675C92.3742 353.49 92.6258 354.281 93.0487 354.981C93.4717 355.681 94.054 356.272 94.7482 356.704L109.657 365.319C111.004 366.1 112.09 365.545 112.09 364.085C112.031 363.269 111.779 362.479 111.356 361.779C110.933 361.078 110.351 360.488 109.657 360.055Z" fill="#3A4E5F"/>
<path opacity="0.3" d="M109.657 360.055L94.7482 351.441C93.4012 350.671 92.3145 351.214 92.3145 352.675C92.3742 353.49 92.6258 354.281 93.0487 354.981C93.4717 355.681 94.054 356.272 94.7482 356.704L109.657 365.319C111.004 366.1 112.09 365.545 112.09 364.085C112.031 363.269 111.779 362.479 111.356 361.779C110.933 361.078 110.351 360.488 109.657 360.055Z" fill="black"/>
<path d="M278.664 410.667V411.584C278.705 412.377 278.931 413.15 279.324 413.84C279.717 414.53 280.267 415.118 280.928 415.557L330.181 443.993C330.893 444.356 331.681 444.545 332.479 444.545C333.278 444.545 334.066 444.356 334.777 443.993L416.338 396.902C417.001 396.464 417.551 395.876 417.944 395.186C418.338 394.495 418.563 393.722 418.602 392.929V392.012C418.561 391.219 418.335 390.446 417.942 389.756C417.549 389.066 416.999 388.478 416.338 388.039L367.085 359.603C366.373 359.24 365.585 359.051 364.787 359.051C363.988 359.051 363.2 359.24 362.489 359.603L280.928 406.694C280.265 407.132 279.715 407.72 279.322 408.41C278.928 409.1 278.703 409.874 278.664 410.667Z" fill="#3A4E5F"/>
<path d="M278.664 410.667V411.584C278.705 412.377 278.931 413.15 279.324 413.84C279.717 414.53 280.267 415.118 280.928 415.557L330.181 443.993C330.893 444.356 331.681 444.545 332.479 444.545C333.278 444.545 334.066 444.356 334.777 443.993L416.338 396.902C417.001 396.464 417.551 395.876 417.944 395.186C418.338 394.495 418.563 393.722 418.602 392.929V392.012C418.561 391.219 418.335 390.446 417.942 389.756C417.549 389.066 416.999 388.478 416.338 388.039L367.085 359.603C366.373 359.24 365.585 359.051 364.787 359.051C363.988 359.051 363.2 359.24 362.489 359.603L280.928 406.694C280.265 407.132 279.715 407.72 279.322 408.41C278.928 409.1 278.703 409.874 278.664 410.667Z" fill="#3A4E5F"/>
<path opacity="0.3" d="M416.372 388.039L367.119 359.603C366.407 359.24 365.62 359.051 364.821 359.051C364.022 359.051 363.234 359.24 362.523 359.603L332.513 376.956V444.582C333.303 444.593 334.082 444.402 334.777 444.027L416.338 396.936C417.001 396.498 417.551 395.91 417.944 395.22C418.338 394.529 418.563 393.756 418.602 392.963V392.046C418.57 391.25 418.352 390.472 417.965 389.776C417.577 389.08 417.032 388.485 416.372 388.039Z" fill="white"/>
<path opacity="0.15" d="M416.372 388.039L367.119 359.603C366.407 359.24 365.62 359.051 364.821 359.051C364.022 359.051 363.234 359.24 362.523 359.603L332.513 376.956V444.582C333.303 444.593 334.082 444.402 334.777 444.027L416.338 396.936C417.001 396.498 417.551 395.91 417.944 395.22C418.338 394.529 418.563 393.756 418.602 392.963V392.046C418.57 391.25 418.352 390.472 417.965 389.776C417.577 389.08 417.032 388.485 416.372 388.039Z" fill="black"/>
<path opacity="0.3" d="M332.513 376.956L280.962 406.728C280.299 407.166 279.749 407.754 279.355 408.444C278.962 409.134 278.737 409.907 278.698 410.701V411.618C278.738 412.411 278.964 413.184 279.358 413.874C279.751 414.564 280.3 415.152 280.962 415.591L330.215 444.027C330.91 444.403 331.689 444.594 332.479 444.582L332.513 376.956Z" fill="white"/>
<path opacity="0.2" d="M332.513 376.956L280.962 406.728C280.299 407.166 279.749 407.754 279.355 408.444C278.962 409.134 278.737 409.907 278.698 410.701V411.618C278.738 412.411 278.964 413.184 279.358 413.874C279.751 414.564 280.3 415.152 280.962 415.591L330.215 444.027C330.91 444.403 331.689 444.594 332.479 444.582L332.513 376.956Z" fill="black"/>
<path d="M322.325 433.228L280.962 409.343C280.682 409.252 280.438 409.075 280.265 408.837C280.092 408.599 279.999 408.312 279.999 408.018C279.999 407.724 280.092 407.438 280.265 407.2C280.438 406.962 280.682 406.785 280.962 406.694L362.523 359.603C363.234 359.24 364.022 359.051 364.821 359.051C365.619 359.051 366.407 359.24 367.119 359.603L416.372 388.039C416.652 388.129 416.896 388.306 417.069 388.544C417.242 388.782 417.335 389.069 417.335 389.363C417.335 389.657 417.242 389.944 417.069 390.182C416.896 390.42 416.652 390.597 416.372 390.687L402.845 398.464L398.101 401.204L334.811 437.745C334.1 438.107 333.312 438.297 332.513 438.297C331.715 438.297 330.927 438.107 330.215 437.745L326.208 435.424L322.325 433.228Z" fill="#3A4E5F"/>
<path opacity="0.3" d="M322.325 433.228L280.962 409.343C280.682 409.252 280.438 409.075 280.265 408.837C280.092 408.599 279.999 408.312 279.999 408.018C279.999 407.724 280.092 407.438 280.265 407.2C280.438 406.962 280.682 406.785 280.962 406.694L362.523 359.603C363.234 359.24 364.022 359.051 364.821 359.051C365.619 359.051 366.407 359.24 367.119 359.603L416.372 388.039C416.652 388.129 416.896 388.306 417.069 388.544C417.242 388.782 417.335 389.069 417.335 389.363C417.335 389.657 417.242 389.944 417.069 390.182C416.896 390.42 416.652 390.597 416.372 390.687L402.845 398.464L398.101 401.204L334.811 437.745C334.1 438.107 333.312 438.297 332.513 438.297C331.715 438.297 330.927 438.107 330.215 437.745L326.208 435.424L322.325 433.228Z" fill="white"/>
<path opacity="0.15" d="M359.885 393.551L416.372 388.038L360.383 391.208L367.119 359.602C366.348 359.202 365.484 359.018 364.617 359.07L354.055 401.86L280.034 407.961C280.027 408.266 280.112 408.566 280.278 408.822C280.443 409.079 280.682 409.279 280.962 409.399L340.732 405.867L332.502 438.333L342.996 405.743L353.184 405.143C354.444 405.081 355.643 404.585 356.58 403.739C357.456 402.961 358.06 401.921 358.3 400.773L359.885 393.551Z" fill="black"/>
<path opacity="0.3" d="M297.716 406.444L354.078 401.803L356.093 393.721L357.225 389.193L364.674 359.036C363.94 359.046 363.218 359.228 362.568 359.568L321.816 383.114L281.064 406.66C280.823 406.771 280.612 406.94 280.451 407.151C280.289 407.362 280.181 407.609 280.136 407.871L291.456 406.943L297.716 406.444Z" fill="white"/>
<path d="M355.448 352.856C360.598 349.879 368.952 349.879 374.103 352.856C379.254 355.833 379.254 360.655 374.103 363.621C368.952 366.587 360.598 366.598 355.448 363.621C350.297 360.644 350.342 355.833 355.448 352.856Z" fill="#F28F8F"/>
<path d="M358.3 359.976C358.161 359.971 358.027 359.924 357.915 359.84C357.873 359.813 357.84 359.773 357.822 359.726C357.804 359.68 357.801 359.628 357.813 359.58L358.583 356.184C358.583 356.104 358.583 356.002 358.674 355.878C358.725 355.743 358.826 355.634 358.957 355.572L360.836 354.44C360.964 354.369 361.108 354.334 361.255 354.338C361.401 354.333 361.546 354.368 361.674 354.44L371.669 360.214C371.718 360.232 371.76 360.264 371.79 360.306C371.821 360.349 371.838 360.399 371.839 360.451C371.835 360.503 371.817 360.552 371.787 360.594C371.757 360.636 371.716 360.669 371.669 360.689L369.643 361.821C369.515 361.892 369.37 361.927 369.224 361.923C369.078 361.928 368.933 361.893 368.805 361.821L362.013 357.927L361.56 359.795C361.56 359.885 361.47 359.964 361.345 360.021C361.206 360.078 361.054 360.102 360.904 360.089L358.3 359.976Z" fill="#FAFAFA"/>
<path d="M231.652 392.046L268.137 370.991L293.041 377.16C293.576 377.291 294.139 377.254 294.653 377.054C295.167 376.853 295.606 376.5 295.912 376.041C296.217 375.582 296.374 375.04 296.361 374.489C296.347 373.937 296.164 373.404 295.837 372.96L286.486 360.372L322.959 339.306C325.654 337.744 325.654 335.197 322.959 333.646L250.002 291.49C248.481 290.726 246.803 290.327 245.1 290.327C243.398 290.327 241.72 290.726 240.199 291.49L148.88 344.264C146.186 345.815 146.186 348.362 148.88 349.924L221.872 392.046C223.388 392.813 225.063 393.212 226.762 393.212C228.461 393.212 230.136 392.813 231.652 392.046Z" fill="#FAFAFA"/>
<path d="M186.61 336.51C188.76 335.249 191.061 334.268 193.459 333.589C195.591 332.985 197.78 332.605 199.991 332.457C201.941 332.328 203.9 332.446 205.82 332.808C207.453 333.115 209.042 333.621 210.552 334.314C212.061 335.068 213.616 335.895 215.216 336.793C216.816 337.691 218.242 338.585 219.495 339.476C220.546 340.195 221.433 341.129 222.098 342.215C222.721 343.23 222.943 344.441 222.721 345.611C222.405 347.007 221.721 348.293 220.74 349.335C219.264 350.919 217.535 352.246 215.623 353.263C213.488 354.52 211.207 355.512 208.831 356.218C206.714 356.834 204.535 357.214 202.334 357.35C200.383 357.475 198.424 357.354 196.504 356.988C194.867 356.687 193.274 356.185 191.761 355.493C190.252 354.739 188.701 353.912 187.108 353.014C185.516 352.116 184.086 351.218 182.818 350.32C181.768 349.608 180.884 348.677 180.226 347.592C179.605 346.576 179.383 345.366 179.603 344.196C179.918 342.796 180.584 341.498 181.539 340.426C182.994 338.841 184.709 337.516 186.61 336.51ZM209.76 344.185C209.307 343.833 208.826 343.518 208.322 343.245L206.149 341.989L203.964 340.732C203.447 340.415 202.906 340.138 202.345 339.906C201.103 339.341 199.758 339.041 198.394 339.023C196.672 339.06 194.994 339.578 193.549 340.517C191.75 341.558 190.878 342.487 190.946 343.313C191.024 343.779 191.202 344.223 191.467 344.614C191.733 345.005 192.08 345.333 192.485 345.577C192.93 345.925 193.395 346.246 193.878 346.539C194.534 346.958 195.247 347.388 196.006 347.818C196.764 348.249 197.5 348.667 198.27 349.052C198.813 349.351 199.372 349.62 199.945 349.856C201.187 350.42 202.532 350.721 203.896 350.739C205.618 350.698 207.295 350.181 208.741 349.245C210.541 348.203 211.412 347.275 211.333 346.437C211.254 345.969 211.071 345.524 210.799 345.134C210.527 344.745 210.172 344.421 209.76 344.185ZM225.868 316.088C225.809 315.599 225.883 315.102 226.083 314.651C226.481 314.051 227.038 313.573 227.691 313.27L233.271 310.044C233.903 309.665 234.61 309.429 235.343 309.353C235.955 309.281 236.574 309.396 237.12 309.681C237.236 309.76 237.339 309.855 237.426 309.964C237.525 310.095 237.594 310.246 237.63 310.406L244.048 367.198C244.099 367.685 244.021 368.177 243.822 368.625C243.436 369.234 242.881 369.718 242.225 370.017L236.645 373.243C236.013 373.62 235.305 373.852 234.573 373.922C233.962 374.003 233.341 373.892 232.796 373.605C232.672 373.529 232.565 373.429 232.479 373.311C232.384 373.178 232.315 373.028 232.275 372.87L225.868 316.088ZM255.198 329.582C257.35 328.323 259.65 327.338 262.047 326.65C264.177 326.04 266.367 325.66 268.578 325.518C270.529 325.389 272.487 325.507 274.408 325.869C276.041 326.176 277.63 326.682 279.14 327.374C280.649 328.129 282.204 328.952 283.804 329.842C285.404 330.733 286.83 331.631 288.083 332.536C289.132 333.253 290.02 334.183 290.686 335.265C291.307 336.28 291.529 337.49 291.309 338.661C290.994 340.063 290.31 341.357 289.328 342.407C287.849 343.988 286.12 345.315 284.211 346.335C282.078 347.595 279.797 348.583 277.419 349.279C275.307 349.901 273.131 350.281 270.933 350.411C268.983 350.54 267.024 350.422 265.103 350.06C263.467 349.751 261.875 349.245 260.36 348.554C258.843 347.818 257.292 347.003 255.708 346.086C254.123 345.17 252.696 344.275 251.417 343.392C250.371 342.671 249.487 341.738 248.825 340.653C248.2 339.638 247.978 338.427 248.202 337.257C248.517 335.856 249.183 334.559 250.138 333.487C251.587 331.904 253.299 330.582 255.198 329.582ZM278.348 337.246C277.894 336.898 277.413 336.588 276.91 336.317L274.736 335.072L272.552 333.816C272.032 333.5 271.491 333.22 270.933 332.978C269.688 332.424 268.345 332.124 266.982 332.095C265.258 332.144 263.58 332.661 262.126 333.589C260.337 334.631 259.466 335.57 259.534 336.397C259.612 336.863 259.789 337.306 260.055 337.697C260.321 338.088 260.668 338.417 261.073 338.661C261.515 339.011 261.976 339.336 262.454 339.634C263.122 340.053 263.835 340.483 264.594 340.913C265.352 341.343 266.088 341.762 266.858 342.147C267.628 342.532 268.148 342.792 268.533 342.951C269.778 343.506 271.121 343.807 272.484 343.834C274.206 343.783 275.881 343.262 277.329 342.328C279.129 341.298 279.989 340.359 279.921 339.532C279.843 339.059 279.662 338.608 279.39 338.213C279.118 337.818 278.762 337.487 278.348 337.246Z" fill="#3A4E5F"/>
<path d="M94.8052 114.989L109.657 106.408V174.735C109.657 177.305 112.634 179.875 112.634 179.875L97.7823 188.455C97.7823 188.455 94.8052 185.874 94.8052 183.305V114.989Z" fill="#37474F"/>
<path d="M76.7498 114.841L83.0098 122.765V152.458C82.9981 160.77 80.6441 168.911 76.2178 175.947L97.7258 188.399C96.1021 187.134 95.0344 185.286 94.7486 183.248V125.267L76.7498 114.841Z" fill="#455A64"/>
<path d="M76.2178 176.003V179.433L97.7824 191.885V188.455L76.2178 176.003Z" fill="#3A4E5F"/>
<path d="M97.7822 191.885L112.634 183.304V179.875L97.7822 188.455V191.885Z" fill="#3A4E5F"/>
<path opacity="0.1" d="M97.7822 191.885L112.634 183.304V179.875L97.7822 188.455V191.885Z" fill="black"/>
<path d="M94.1259 78.9117C91.6015 77.3948 88.0923 77.5872 84.2096 79.8286L84.0624 79.9078C76.3874 84.3566 70.1841 95.0879 70.1841 103.997V104.144C70.1841 108.672 71.8594 111.909 74.531 113.29L85.7717 119.901L104.518 85.0471L94.1259 78.9117Z" fill="#3A4E5F"/>
<path opacity="0.8" d="M94.1259 78.9117C91.6015 77.3948 88.0923 77.5872 84.2096 79.8286L84.0624 79.9078C76.3874 84.3566 70.1841 95.0879 70.1841 103.997V104.144C70.1841 108.672 71.8594 111.909 74.531 113.29L85.7717 119.901L104.518 85.0471L94.1259 78.9117Z" fill="#FAFAFA"/>
<path opacity="0.2" d="M74.5083 113.313L85.7491 119.924L91.9751 108.366L71.4519 96.5142C70.6455 98.9279 70.2178 101.452 70.1841 103.997V104.144C70.1841 108.751 71.8368 111.932 74.5083 113.313Z" fill="#3A4E5F"/>
<path d="M118.396 87.4583C115.543 85.8282 111.695 85.8848 107.438 87.9677C106.986 88.1828 106.533 88.4205 106.08 88.6922C105.627 88.9639 105.005 89.3374 104.484 89.6997C103.596 90.3128 102.746 90.9781 101.937 91.692C100.385 93.028 98.9529 94.4977 97.6578 96.0841C94.0508 100.483 91.3777 105.571 89.8018 111.038C89.0663 113.616 88.6855 116.281 88.6698 118.962C88.6698 124.384 90.5262 128.233 93.5487 130.112L82.806 123.92C80.8132 122.635 79.1837 120.86 78.0737 118.765C76.9637 116.67 76.4104 114.325 76.4668 111.955C76.4892 109.406 76.8469 106.871 77.5309 104.416C79.0737 98.8164 81.7731 93.6028 85.4549 89.111C86.7469 87.5219 88.179 86.0519 89.7338 84.7189C90.5473 83.973 91.4054 83.2774 92.3035 82.636C92.8355 82.2737 93.3676 81.9341 93.8996 81.6285C94.4316 81.3229 94.8165 81.1304 95.2806 80.9153C97.1874 80.016 99.2753 79.5667 101.383 79.602C103.491 79.6374 105.563 80.1564 107.438 81.1191L107.744 81.2889L108.129 81.5153L118.396 87.4583Z" fill="#3A4E5F"/>
<path opacity="0.1" d="M82.7831 123.852C80.7903 122.567 79.1608 120.792 78.0508 118.697C76.9408 116.602 76.3875 114.257 76.4439 111.887C76.4662 109.338 76.824 106.803 77.5079 104.348L89.7788 111.026C89.0434 113.604 88.6625 116.27 88.6468 118.95C88.6468 124.373 90.5033 128.222 93.5257 130.101L82.7831 123.852Z" fill="black"/>
<path d="M123.513 98.7555C123.513 109.883 115.713 123.399 106.08 128.957C101.246 131.765 96.854 132.002 93.6957 130.089L93.5259 129.987C90.5035 128.108 88.647 124.259 88.647 118.837C88.647 107.721 96.4465 94.1936 106.08 88.6354C110.879 85.862 115.238 85.5904 118.396 87.4016C121.554 89.2128 123.513 93.1861 123.513 98.7555Z" fill="#3A4E5F"/>
<path opacity="0.2" d="M123.513 98.7555C123.513 109.883 115.713 123.399 106.08 128.957C101.246 131.765 96.854 132.002 93.6957 130.089L93.5259 129.987C90.5035 128.108 88.647 124.259 88.647 118.837C88.647 107.721 96.4465 94.1936 106.08 88.6354C110.879 85.862 115.238 85.5904 118.396 87.4016C121.554 89.2128 123.513 93.1861 123.513 98.7555Z" fill="black"/>
<path d="M176.977 95.8805C176.977 95.8805 159.385 104.936 144.364 130.972C141.661 135.643 139.278 140.491 137.232 145.485C129.693 163.993 130.316 176.751 130.316 176.751C125.075 163.902 118.554 150.613 107.676 140.436C103.421 136.473 98.9584 132.74 94.3068 129.252C91.4315 127.576 89.7788 123.954 89.7788 118.951C89.8157 115.439 90.4631 111.961 91.6919 108.672C92.4975 106.46 93.4976 104.323 94.6804 102.288C97.5233 97.1296 101.638 92.7846 106.634 89.6658C110.97 87.1641 114.954 86.8018 117.83 88.4546C123.176 90.7391 128.64 92.7381 134.198 94.4428C148.462 98.7671 163.234 97.7596 176.977 95.8805Z" fill="#3A4E5F"/>
<path opacity="0.8" d="M176.977 95.8805C176.977 95.8805 159.385 104.936 144.364 130.972C141.661 135.643 139.278 140.491 137.232 145.485C129.693 163.993 130.316 176.751 130.316 176.751C125.075 163.902 118.554 150.613 107.676 140.436C103.421 136.473 98.9584 132.74 94.3068 129.252C91.4315 127.576 89.7788 123.954 89.7788 118.951C89.8157 115.439 90.4631 111.961 91.6919 108.672C92.4975 106.46 93.4976 104.323 94.6804 102.288C97.5233 97.1296 101.638 92.7846 106.634 89.6658C110.97 87.1641 114.954 86.8018 117.83 88.4546C123.176 90.7391 128.64 92.7381 134.198 94.4428C148.462 98.7671 163.234 97.7596 176.977 95.8805Z" fill="#FAFAFA"/>
<path opacity="0.2" d="M137.232 145.439C129.693 163.947 130.316 176.705 130.316 176.705C125.075 163.857 118.554 150.567 107.676 140.391C103.421 136.428 98.9584 132.695 94.3068 129.206C91.4315 127.531 89.7788 123.909 89.7788 118.905C89.821 115.409 90.4682 111.947 91.6919 108.672C105.061 115.328 126.625 127.633 137.232 145.439Z" fill="#3A4E5F"/>
<path d="M210.122 120.977C210.122 132.58 206.545 145.27 200.602 156.997C192.983 172.064 181.494 185.422 168.668 192.847C145.745 206.081 127.169 195.349 127.169 168.894C127.232 162.546 128.158 156.236 129.92 150.137C134.535 134.039 143.172 119.38 155.016 107.54C156.639 105.948 158.303 104.438 160.008 103.012C160.721 102.423 161.446 101.88 162.17 101.303C163.201 100.522 164.231 99.7744 165.283 99.0386C166.336 98.3028 167.536 97.6689 168.668 97.0237C191.534 83.768 210.122 94.522 210.122 120.977Z" fill="#3A4E5F"/>
<path opacity="0.1" d="M200.602 156.997C192.983 172.064 181.494 185.421 168.668 192.847C145.745 206.08 127.169 195.349 127.169 168.894C127.232 162.546 128.158 156.236 129.92 150.137C131.471 153.533 137.04 158.446 139.542 155.016C138.003 160.431 137.192 166.027 137.131 171.656C137.131 179.263 138.829 185.399 142.032 189.406C143.355 191.084 145.056 192.425 146.995 193.322C148.935 194.219 151.058 194.646 153.194 194.568C157.722 194.568 163.019 192.904 168.464 189.757C179.411 183.44 189.474 172.086 196.617 159.193C196.572 159.227 197.998 160.427 200.602 156.997Z" fill="black"/>
<path d="M207.281 122.46C207.281 134.142 203.183 147.364 196.572 159.227C189.429 172.086 179.366 183.44 168.419 189.791C162.974 192.938 157.699 194.602 153.149 194.602C151.013 194.68 148.89 194.253 146.95 193.356C145.011 192.459 143.31 191.118 141.987 189.44C138.783 185.433 137.085 179.252 137.085 171.69C137.147 166.061 137.958 160.465 139.497 155.05C140.074 152.899 140.764 150.748 141.546 148.597C142.933 144.794 144.566 141.084 146.436 137.492L147.568 135.228C148.236 134.006 148.926 132.795 149.651 131.606C152.085 127.568 154.821 123.72 157.835 120.094L157.937 119.98C159.878 117.65 161.945 115.428 164.129 113.324C165.684 111.815 167.261 110.434 168.861 109.181C169.54 108.638 170.219 108.117 170.898 107.619C171.725 107.019 172.562 106.487 173.4 105.887C174.238 105.287 175.053 104.846 175.879 104.359C181.335 101.201 186.622 99.5479 191.161 99.5479C201.281 99.6158 207.281 108.128 207.281 122.46Z" fill="#3A4E5F"/>
<path opacity="0.3" d="M207.281 122.46C207.281 134.142 203.183 147.364 196.572 159.227C189.429 172.086 179.366 183.44 168.419 189.791C162.974 192.938 157.699 194.602 153.149 194.602C151.013 194.68 148.89 194.253 146.95 193.356C145.011 192.459 143.31 191.118 141.987 189.44C138.783 185.433 137.085 179.252 137.085 171.69C137.147 166.061 137.958 160.465 139.497 155.05C140.074 152.899 140.764 150.748 141.546 148.597C142.933 144.794 144.566 141.084 146.436 137.492L147.568 135.228C148.236 134.006 148.926 132.795 149.651 131.606C152.085 127.568 154.821 123.72 157.835 120.094L157.937 119.98C159.878 117.65 161.945 115.428 164.129 113.324C165.684 111.815 167.261 110.434 168.861 109.181C169.54 108.638 170.219 108.117 170.898 107.619C171.725 107.019 172.562 106.487 173.4 105.887C174.238 105.287 175.053 104.846 175.879 104.359C181.335 101.201 186.622 99.5479 191.161 99.5479C201.281 99.6158 207.281 108.128 207.281 122.46Z" fill="black"/>
<path d="M172.064 128.957L157.507 156.125C153.409 154.586 146.492 152.129 140.855 150.692C141.081 149.967 141.33 149.265 141.602 148.541C142.987 144.736 144.62 141.026 146.492 137.436C146.877 136.689 147.273 135.953 147.624 135.172C148.292 133.95 148.983 132.738 149.707 131.561C152.139 127.521 154.875 123.673 157.892 120.049C157.932 120.012 157.966 119.97 157.993 119.924C158.435 119.403 158.876 118.883 159.318 118.385C163.249 122.275 167.514 125.813 172.064 128.957Z" fill="#3A4E5F"/>
<g opacity="0.6">
<path d="M172.064 128.957L157.507 156.125C153.409 154.586 146.492 152.129 140.855 150.692C141.081 149.967 141.33 149.265 141.602 148.541C142.987 144.736 144.62 141.026 146.492 137.436C146.877 136.689 147.273 135.953 147.624 135.172C148.292 133.95 148.983 132.738 149.707 131.561C152.139 127.521 154.875 123.673 157.892 120.049C157.932 120.012 157.966 119.97 157.993 119.924C158.435 119.403 158.876 118.883 159.318 118.385C163.249 122.275 167.514 125.813 172.064 128.957Z" fill="#FAFAFA"/>
</g>
<path d="M158.672 156.069C155.378 156.069 153.42 153.409 153.42 148.96V148.824C153.42 141.828 158.344 133.282 164.412 129.784L164.525 129.716C165.909 128.855 167.492 128.364 169.121 128.29C172.404 128.29 174.373 130.95 174.373 135.41V135.546C174.373 142.541 169.438 151.077 163.382 154.575L163.268 154.643C161.886 155.509 160.302 156 158.672 156.069Z" fill="#3A4E5F"/>
<g opacity="0.8">
<path d="M158.672 156.069C155.378 156.069 153.42 153.409 153.42 148.96V148.824C153.42 141.828 158.344 133.282 164.412 129.784L164.525 129.716C165.909 128.855 167.492 128.364 169.121 128.29C172.404 128.29 174.373 130.95 174.373 135.41V135.546C174.373 142.541 169.438 151.077 163.382 154.575L163.268 154.643C161.886 155.509 160.302 156 158.672 156.069Z" fill="#FAFAFA"/>
</g>
<path d="M174.328 79.5117C173.46 79.5117 172.628 79.167 172.015 78.5535C171.401 77.94 171.057 77.1078 171.057 76.2402V44.5442C171.057 43.6765 171.401 42.8444 172.015 42.2309C172.628 41.6174 173.46 41.2727 174.328 41.2727C175.196 41.2727 176.028 41.6174 176.641 42.2309C177.255 42.8444 177.6 43.6765 177.6 44.5442V76.2402C177.6 77.1078 177.255 77.94 176.641 78.5535C176.028 79.167 175.196 79.5117 174.328 79.5117Z" fill="#E0E0E0"/>
<path d="M145.564 87.2318C144.991 87.233 144.427 87.0829 143.93 86.7967C143.433 86.5105 143.021 86.0983 142.734 85.6017L126.886 58.1847C126.451 57.4341 126.331 56.5414 126.554 55.7028C126.777 54.8643 127.324 54.1486 128.075 53.7133C128.825 53.278 129.718 53.1586 130.556 53.3815C131.395 53.6044 132.111 54.1513 132.546 54.9019L148.394 82.3189C148.683 82.817 148.835 83.3825 148.835 83.9583C148.836 84.5341 148.684 85.0998 148.396 85.5982C148.108 86.0966 147.693 86.5102 147.194 86.797C146.694 87.0838 146.128 87.2338 145.553 87.2318H145.564Z" fill="#E0E0E0"/>
<path d="M115.6 239.803C115.026 239.799 114.464 239.646 113.968 239.357C113.472 239.069 113.061 238.656 112.775 238.159C112.488 237.662 112.337 237.099 112.336 236.525C112.336 235.952 112.485 235.388 112.77 234.89L128.618 207.473C128.823 207.082 129.104 206.737 129.446 206.459C129.787 206.18 130.182 205.973 130.605 205.85C131.029 205.727 131.473 205.692 131.91 205.745C132.348 205.798 132.77 205.939 133.152 206.16C133.534 206.381 133.867 206.676 134.132 207.029C134.396 207.382 134.587 207.784 134.692 208.212C134.797 208.641 134.815 209.086 134.744 209.521C134.672 209.956 134.514 210.372 134.278 210.744L118.43 238.161C118.143 238.659 117.73 239.072 117.234 239.36C116.737 239.648 116.174 239.801 115.6 239.803Z" fill="#E0E0E0"/>
<path d="M174.328 244.036C173.46 244.036 172.628 243.692 172.015 243.078C171.401 242.465 171.057 241.632 171.057 240.765V209.069C171.057 208.201 171.401 207.369 172.015 206.756C172.628 206.142 173.46 205.797 174.328 205.797C175.196 205.797 176.028 206.142 176.641 206.756C177.255 207.369 177.6 208.201 177.6 209.069V240.765C177.6 241.632 177.255 242.465 176.641 243.078C176.028 243.692 175.196 244.036 174.328 244.036Z" fill="#E0E0E0"/>
<path d="M219.019 214.446C218.45 214.442 217.892 214.29 217.399 214.004C216.907 213.718 216.498 213.308 216.212 212.816L200.364 185.399C199.972 184.651 199.884 183.781 200.119 182.97C200.354 182.158 200.893 181.47 201.624 181.047C202.355 180.624 203.221 180.501 204.041 180.702C204.861 180.904 205.572 181.414 206.024 182.127L221.872 209.544C222.157 210.042 222.306 210.606 222.305 211.179C222.305 211.753 222.153 212.316 221.867 212.813C221.581 213.31 221.169 213.723 220.674 214.012C220.178 214.3 219.616 214.454 219.042 214.457L219.019 214.446Z" fill="#E0E0E0"/>
<path d="M251.678 181.765C251.106 181.766 250.544 181.618 250.048 181.335L222.631 165.487C222.259 165.272 221.933 164.985 221.673 164.644C221.412 164.302 221.221 163.913 221.11 163.498C221 163.082 220.972 162.649 221.029 162.224C221.086 161.798 221.226 161.387 221.442 161.016C221.658 160.644 221.944 160.318 222.286 160.058C222.627 159.797 223.016 159.606 223.432 159.495C223.847 159.385 224.28 159.357 224.705 159.414C225.131 159.471 225.542 159.612 225.913 159.827L253.319 175.675C253.942 176.036 254.428 176.592 254.702 177.258C254.977 177.923 255.024 178.66 254.837 179.355C254.65 180.05 254.239 180.664 253.668 181.102C253.097 181.539 252.397 181.777 251.678 181.777V181.765Z" fill="#E0E0E0"/>
<path d="M263.643 137.13H231.947C231.079 137.13 230.247 136.786 229.633 136.172C229.02 135.559 228.675 134.727 228.675 133.859C228.675 132.991 229.02 132.159 229.633 131.546C230.247 130.932 231.079 130.587 231.947 130.587H263.643C264.51 130.587 265.343 130.932 265.956 131.546C266.57 132.159 266.914 132.991 266.914 133.859C266.914 134.727 266.57 135.559 265.956 136.172C265.343 136.786 264.51 137.13 263.643 137.13Z" fill="#E0E0E0"/>
<path d="M224.272 108.321C223.549 108.325 222.844 108.09 222.269 107.652C221.694 107.213 221.28 106.597 221.092 105.898C220.905 105.199 220.954 104.458 221.232 103.791C221.511 103.123 222.002 102.567 222.63 102.208L250.048 86.3602C250.42 86.1241 250.836 85.9657 251.271 85.8945C251.706 85.8233 252.151 85.8408 252.58 85.9459C253.008 86.0511 253.41 86.2417 253.763 86.5063C254.116 86.771 254.411 87.1042 254.632 87.4859C254.853 87.8677 254.994 88.2901 255.047 88.7278C255.1 89.1655 255.065 89.6094 254.942 90.0329C254.819 90.4565 254.612 90.8508 254.333 91.1923C254.055 91.5338 253.709 91.8155 253.319 92.0202L225.913 107.868C225.417 108.163 224.85 108.32 224.272 108.321Z" fill="#E0E0E0"/>
<path d="M203.183 87.2318C202.609 87.2298 202.045 87.077 201.549 86.7885C201.053 86.5 200.642 86.0862 200.356 85.5884C200.071 85.0906 199.921 84.5265 199.922 83.9526C199.924 83.3788 200.076 82.8153 200.364 82.3189L216.212 54.9019C216.647 54.1513 217.363 53.6044 218.201 53.3815C219.04 53.1586 219.933 53.278 220.683 53.7133C221.434 54.1486 221.981 54.8643 222.204 55.7028C222.427 56.5414 222.307 57.4341 221.872 58.1847L206.024 85.6017C205.736 86.1 205.322 86.5132 204.823 86.7995C204.324 87.0858 203.758 87.235 203.183 87.2318Z" fill="#E0E0E0"/>
</svg>
